# Blender 4.4.3
# www.blender.org
mtllib gantry.mtl
o Cube
v 56.722870 -99.985870 -64.148674
v 64.148674 -99.985870 -56.722870
v 57.082802 10.172115 -53.796089
v 53.796089 10.172115 -57.082802
v 64.148674 -99.985870 56.722870
v 56.722870 -99.985870 64.148674
v 53.796089 10.172115 57.082802
v 57.082802 10.172115 53.796089
v -64.148674 -99.985870 -56.722870
v -56.722870 -99.985870 -64.148674
v -53.796089 10.172115 -57.082802
v -57.082802 10.172115 -53.796089
v -56.722870 -99.985870 64.148674
v -64.148674 -99.985870 56.722870
v -57.082802 10.172115 53.796089
v -53.796089 10.172115 57.082802
v 65.193298 -100.629959 -57.646572
v 57.646572 -100.629959 -65.193298
v 57.646572 -100.629959 65.193298
v 65.193298 -100.629959 57.646572
v -65.193298 -100.629959 57.646572
v -57.646572 -100.629959 65.193298
v -57.646572 -100.629959 -65.193298
v -65.193298 -100.629959 -57.646572
v 58.326923 -104.294922 -54.802425
v 54.802425 -104.294922 -58.326923
v 54.802425 -104.294922 58.326923
v 58.326923 -104.294922 54.802425
v -58.326923 -104.294922 54.802425
v -54.802425 -104.294922 58.326923
v -54.802425 -104.294922 -58.326923
v -58.326923 -104.294922 -54.802425
v 56.722870 10.172115 -64.148674
v 64.148674 10.172115 -56.722870
v 64.148674 10.172115 56.722870
v 56.722870 10.172115 64.148674
v -56.722870 10.172115 64.148674
v -64.148674 10.172115 56.722870
v -64.148674 10.172115 -56.722870
v -56.722870 10.172115 -64.148674
v 53.796089 13.162697 -57.082802
v 57.082802 13.162697 -53.796089
v 57.082802 13.162697 53.796089
v 53.796089 13.162697 57.082802
v -53.796089 13.162697 57.082802
v -57.082802 13.162697 53.796089
v -57.082802 13.162697 -53.796089
v -53.796089 13.162697 -57.082802
v 45.684040 24.205738 -48.475140
v 48.475140 24.205738 -45.684040
v 48.475140 24.205738 45.684040
v 45.684040 24.205738 48.475140
v -45.684040 24.205738 48.475140
v -48.475140 24.205738 45.684040
v -48.475140 24.205738 -45.684040
v -45.684040 24.205738 -48.475140
v 43.993408 34.921810 -44.393593
v 44.393593 34.921810 -43.993408
v 44.393593 34.921810 43.993408
v 43.993408 34.921810 44.393593
v -43.993408 34.921810 44.393593
v -44.393593 34.921810 43.993408
v -44.393593 34.921810 -43.993408
v -43.993408 34.921810 -44.393593
v 45.684040 34.921810 -48.475140
v 48.475140 34.921810 -45.684040
v 48.475140 34.921810 45.684040
v 45.684040 34.921810 48.475140
v -45.684040 34.921810 48.475140
v -48.475140 34.921810 45.684040
v -48.475140 34.921810 -45.684040
v -45.684040 34.921810 -48.475140
v 43.993408 -75.442810 -44.393593
v 44.393593 -75.442810 -43.993408
v 44.393593 -75.442810 43.993408
v 43.993408 -75.442810 44.393593
v -43.993408 -75.442810 44.393593
v -44.393593 -75.442810 43.993408
v -44.393593 -75.442810 -43.993408
v -43.993408 -75.442810 -44.393593
v 65.193298 -104.294922 -57.646572
v 57.646572 -104.294922 -65.193298
v 57.646572 -104.294922 65.193298
v 65.193298 -104.294922 57.646572
v -65.193298 -104.294922 57.646572
v -57.646572 -104.294922 65.193298
v -57.646572 -104.294922 -65.193298
v -65.193298 -104.294922 -57.646572
vn -0.0000 -0.0000 -1.0000
vn -1.0000 -0.0000 -0.0000
vn 0.7071 -0.0000 0.7071
vn 1.0000 -0.0000 -0.0000
vn -0.0000 -0.0000 1.0000
vn 0.7071 -0.0000 -0.7071
vn -0.7071 -0.0000 0.7071
vn -0.7071 -0.0000 -0.7071
vn -0.0000 0.8512 -0.5248
vn -0.0000 0.8512 0.5248
vn 0.2970 0.9075 0.2970
vn 0.2970 0.9075 -0.2970
vn -0.5248 0.8512 -0.0000
vn 0.5248 0.8512 -0.0000
vn -0.2970 0.9075 -0.2970
vn -0.2970 0.9075 0.2970
vn -0.6046 -0.5185 -0.6046
vn -0.0000 1.0000 -0.0000
vn -0.0000 0.6148 0.7887
vn -0.0000 0.6148 -0.7887
vn -0.4827 0.7308 -0.4827
vn 0.4827 0.7308 0.4827
vn -0.7887 0.6148 -0.0000
vn 0.7887 0.6148 -0.0000
vn -0.4827 0.7308 0.4827
vn 0.4827 0.7308 -0.4827
vn -0.9005 -0.4349 -0.0000
vn -0.0000 -1.0000 -0.0000
vn -0.0000 -0.4349 -0.9005
vn 0.6046 -0.5185 -0.6046
vn 0.9005 -0.4349 -0.0000
vn 0.6046 -0.5185 0.6046
vn -0.0000 -0.4349 0.9005
vn -0.6046 -0.5185 0.6046
vt 0.625000 0.764470
vt 0.375000 0.985530
vt 0.375000 0.764470
vt 0.625000 0.514470
vt 0.375000 0.735530
vt 0.375000 0.514470
vt 0.861231 0.520173
vt 0.854827 0.513769
vt 0.625000 0.014470
vt 0.375000 0.235530
vt 0.375000 0.014470
vt 0.625000 0.264470
vt 0.375000 0.485530
vt 0.375000 0.264470
vt 0.625000 0.000000
vt 0.375000 0.000000
vt 0.625000 0.235530
vt 0.625000 0.485530
vt 0.625000 0.735530
vt 0.144923 0.513165
vt 0.851866 0.524052
vt 0.138165 0.519923
vt 0.861231 0.729827
vt 0.860530 0.750000
vt 0.854827 0.736231
vt 0.875000 0.514470
vt 0.638769 0.520173
vt 0.639470 0.500000
vt 0.645173 0.513769
vt 0.645173 0.736231
vt 0.638769 0.729827
vt 0.875000 0.735530
vt 0.639470 0.750000
vt 0.860530 0.500000
vt 0.648134 0.524052
vt 0.648134 0.725948
vt 0.851866 0.725948
vt 0.850948 0.726866
vt 0.850948 0.523134
vt 0.649052 0.523134
vt 0.649052 0.726866
vt 0.138165 0.730077
vt 0.144923 0.736835
vt 0.125000 0.735530
vt 0.139470 0.500000
vt 0.355077 0.513165
vt 0.361835 0.519923
vt 0.361835 0.730077
vt 0.360530 0.750000
vt 0.355077 0.736835
vt 0.125000 0.514470
vt 0.360530 0.500000
vt 0.139470 0.750000
vt 0.625000 0.985530
s 0
f 40/1/1 1/2/1 10/3/1
f 38/4/2 9/5/2 14/6/2
f 8/7/3 44/8/3 7/8/3
f 34/9/4 5/10/4 2/11/4
f 36/12/5 13/13/5 6/14/5
f 33/15/6 2/11/6 1/16/6
f 6/14/3 35/17/3 36/12/3
f 14/6/7 37/18/7 38/4/7
f 10/3/8 39/19/8 40/1/8
f 1/2/9 23/3/9 10/3/9
f 24/5/2 85/6/2 21/6/2
f 13/13/10 19/14/10 6/14/10
f 6/14/11 20/10/11 5/10/11
f 2/11/12 18/16/12 1/16/12
f 9/5/13 21/6/13 14/6/13
f 5/10/14 17/11/14 2/11/14
f 10/3/15 24/5/15 9/5/15
f 14/6/16 22/13/16 13/13/16
f 27/20/17 75/21/17 28/22/17
f 20/10/4 81/11/4 17/11/4
f 21/6/7 86/13/7 22/13/7
f 17/11/6 82/16/6 18/16/6
f 18/2/1 87/3/1 23/3/1
f 22/13/5 83/14/5 19/14/5
f 23/3/8 88/5/8 24/5/8
f 19/14/3 84/10/3 20/10/3
f 3/23/18 33/24/18 4/25/18
f 7/8/18 35/26/18 8/7/18
f 15/27/18 37/28/18 16/29/18
f 11/30/18 39/19/18 12/31/18
f 8/7/18 34/32/18 3/23/18
f 4/25/18 40/33/18 11/30/18
f 12/31/18 38/4/18 15/27/18
f 16/29/18 36/34/18 7/8/18
f 44/8/19 53/29/19 45/29/19
f 15/27/2 47/31/2 12/31/2
f 3/23/4 43/7/4 8/7/4
f 16/29/7 46/27/7 15/27/7
f 4/25/6 42/23/6 3/23/6
f 7/8/5 45/29/5 16/29/5
f 11/30/1 41/25/1 4/25/1
f 12/31/8 48/30/8 11/30/8
f 53/29/7 70/27/7 54/27/7
f 48/30/20 49/25/20 41/25/20
f 47/31/21 56/30/21 48/30/21
f 43/7/22 52/8/22 44/8/22
f 46/27/23 55/31/23 47/31/23
f 42/23/24 51/7/24 43/7/24
f 45/29/25 54/27/25 46/27/25
f 41/25/26 50/23/26 42/23/26
f 62/35/4 79/36/4 63/36/4
f 49/25/6 66/23/6 50/23/6
f 52/8/5 69/29/5 53/29/5
f 56/30/1 65/25/1 49/25/1
f 55/31/8 72/30/8 56/30/8
f 51/7/3 68/8/3 52/8/3
f 54/27/2 71/31/2 55/31/2
f 50/23/4 67/7/4 51/7/4
f 58/37/18 65/25/18 57/38/18
f 60/39/18 67/7/18 59/21/18
f 62/35/18 69/29/18 61/40/18
f 64/41/18 71/31/18 63/36/18
f 58/37/18 67/7/18 66/23/18
f 64/41/18 65/25/18 72/30/18
f 62/35/18 71/31/18 70/27/18
f 60/39/18 69/29/18 68/8/18
f 28/22/27 74/37/27 25/42/27
f 58/37/2 75/21/2 59/21/2
f 61/40/6 78/35/6 62/35/6
f 57/38/7 74/37/7 58/37/7
f 60/39/1 77/40/1 61/40/1
f 64/41/5 73/38/5 57/38/5
f 63/36/3 80/41/3 64/41/3
f 59/21/8 76/39/8 60/39/8
f 26/43/28 81/44/28 25/42/28
f 28/22/28 83/45/28 27/20/28
f 30/46/28 85/6/28 29/47/28
f 32/48/28 87/49/28 31/50/28
f 25/42/28 84/51/28 28/22/28
f 27/20/28 86/52/28 30/46/28
f 29/47/28 88/5/28 32/48/28
f 31/50/28 82/53/28 26/43/28
f 30/46/29 76/39/29 27/20/29
f 29/47/30 77/40/30 30/46/30
f 32/48/31 78/35/31 29/47/31
f 31/50/32 79/36/32 32/48/32
f 26/43/33 80/41/33 31/50/33
f 25/42/34 73/38/34 26/43/34
f 40/1/1 33/54/1 1/2/1
f 38/4/2 39/19/2 9/5/2
f 8/7/3 43/7/3 44/8/3
f 34/9/4 35/17/4 5/10/4
f 36/12/5 37/18/5 13/13/5
f 33/15/6 34/9/6 2/11/6
f 6/14/3 5/10/3 35/17/3
f 14/6/7 13/13/7 37/18/7
f 10/3/8 9/5/8 39/19/8
f 1/2/9 18/2/9 23/3/9
f 24/5/2 88/5/2 85/6/2
f 13/13/10 22/13/10 19/14/10
f 6/14/11 19/14/11 20/10/11
f 2/11/12 17/11/12 18/16/12
f 9/5/13 24/5/13 21/6/13
f 5/10/14 20/10/14 17/11/14
f 10/3/15 23/3/15 24/5/15
f 14/6/16 21/6/16 22/13/16
f 27/20/17 76/39/17 75/21/17
f 20/10/4 84/10/4 81/11/4
f 21/6/7 85/6/7 86/13/7
f 17/11/6 81/11/6 82/16/6
f 18/2/1 82/2/1 87/3/1
f 22/13/5 86/13/5 83/14/5
f 23/3/8 87/3/8 88/5/8
f 19/14/3 83/14/3 84/10/3
f 3/23/18 34/32/18 33/24/18
f 7/8/18 36/34/18 35/26/18
f 15/27/18 38/4/18 37/28/18
f 11/30/18 40/33/18 39/19/18
f 8/7/18 35/26/18 34/32/18
f 4/25/18 33/24/18 40/33/18
f 12/31/18 39/19/18 38/4/18
f 16/29/18 37/28/18 36/34/18
f 44/8/19 52/8/19 53/29/19
f 15/27/2 46/27/2 47/31/2
f 3/23/4 42/23/4 43/7/4
f 16/29/7 45/29/7 46/27/7
f 4/25/6 41/25/6 42/23/6
f 7/8/5 44/8/5 45/29/5
f 11/30/1 48/30/1 41/25/1
f 12/31/8 47/31/8 48/30/8
f 53/29/7 69/29/7 70/27/7
f 48/30/20 56/30/20 49/25/20
f 47/31/21 55/31/21 56/30/21
f 43/7/22 51/7/22 52/8/22
f 46/27/23 54/27/23 55/31/23
f 42/23/24 50/23/24 51/7/24
f 45/29/25 53/29/25 54/27/25
f 41/25/26 49/25/26 50/23/26
f 62/35/4 78/35/4 79/36/4
f 49/25/6 65/25/6 66/23/6
f 52/8/5 68/8/5 69/29/5
f 56/30/1 72/30/1 65/25/1
f 55/31/8 71/31/8 72/30/8
f 51/7/3 67/7/3 68/8/3
f 54/27/2 70/27/2 71/31/2
f 50/23/4 66/23/4 67/7/4
f 58/37/18 66/23/18 65/25/18
f 60/39/18 68/8/18 67/7/18
f 62/35/18 70/27/18 69/29/18
f 64/41/18 72/30/18 71/31/18
f 58/37/18 59/21/18 67/7/18
f 64/41/18 57/38/18 65/25/18
f 62/35/18 63/36/18 71/31/18
f 60/39/18 61/40/18 69/29/18
f 28/22/27 75/21/27 74/37/27
f 58/37/2 74/37/2 75/21/2
f 61/40/6 77/40/6 78/35/6
f 57/38/7 73/38/7 74/37/7
f 60/39/1 76/39/1 77/40/1
f 64/41/5 80/41/5 73/38/5
f 63/36/3 79/36/3 80/41/3
f 59/21/8 75/21/8 76/39/8
f 26/43/28 82/53/28 81/44/28
f 28/22/28 84/51/28 83/45/28
f 30/46/28 86/52/28 85/6/28
f 32/48/28 88/5/28 87/49/28
f 25/42/28 81/44/28 84/51/28
f 27/20/28 83/45/28 86/52/28
f 29/47/28 85/6/28 88/5/28
f 31/50/28 87/49/28 82/53/28
f 30/46/29 77/40/29 76/39/29
f 29/47/30 78/35/30 77/40/30
f 32/48/31 79/36/31 78/35/31
f 31/50/32 80/41/32 79/36/32
f 26/43/33 73/38/33 80/41/33
f 25/42/34 74/37/34 73/38/34
