# extracted from playroom GLB, metres
v -0.024959 -0.140973 0.019851
v -0.024959 -0.140890 -0.016099
v -0.024959 -0.140405 0.021659
v -0.024959 -0.139639 -0.018295
v -0.024959 -0.139046 0.023195
v -0.024959 -0.137412 -0.019668
v -0.024959 -0.137167 0.024112
v -0.024959 -0.100649 -0.019754
v -0.024959 -0.100131 0.024076
v -0.024959 -0.098995 -0.019155
v -0.024959 -0.098334 0.023087
v -0.024959 -0.097355 -0.017700
v -0.024959 -0.097201 0.021822
v -0.024959 -0.095521 0.017579
v -0.024959 -0.095355 -0.012872
v -0.024959 -0.093847 0.015870
v -0.024959 -0.093642 -0.005800
v -0.024959 -0.093642 0.010200
v -0.024959 -0.093430 -0.011267
v -0.024959 -0.091874 0.015226
v -0.024959 -0.091683 -0.010805
v -0.024959 -0.044984 -0.010772
v -0.024959 -0.044752 0.015103
v -0.024959 -0.042935 0.014170
v -0.024959 -0.042706 -0.009614
v -0.024959 -0.041826 0.013002
v -0.024959 -0.041280 -0.007636
v -0.024959 -0.041153 0.011499
v -0.024959 -0.040993 -0.005800
v -0.024959 -0.040989 0.010200
v -0.024000 -0.140973 0.019851
v -0.024000 -0.140890 -0.016099
v -0.024000 -0.140405 0.021659
v -0.024000 -0.139639 -0.018295
v -0.024000 -0.139046 0.023195
v -0.024000 -0.137412 -0.019668
v -0.024000 -0.137167 0.024112
v -0.024000 -0.100649 -0.019754
v -0.024000 -0.100131 0.024076
v -0.024000 -0.098995 -0.019155
v -0.024000 -0.098334 0.023087
v -0.024000 -0.097355 -0.017700
v -0.024000 -0.097201 0.021822
v -0.024000 -0.095521 0.017579
v -0.024000 -0.095355 -0.012872
v -0.024000 -0.093847 0.015870
v -0.024000 -0.093642 -0.005800
v -0.024000 -0.093642 0.010200
v -0.024000 -0.093430 -0.011267
v -0.024000 -0.091874 0.015226
v -0.024000 -0.091683 -0.010805
v -0.024000 -0.084249 -0.001800
v -0.024000 -0.084249 0.006200
v -0.024000 -0.044984 -0.010772
v -0.024000 -0.044752 0.015103
v -0.024000 -0.042935 0.014170
v -0.024000 -0.042706 -0.009614
v -0.024000 -0.041826 0.013002
v -0.024000 -0.041280 -0.007636
v -0.024000 -0.041153 0.011499
v -0.024000 -0.040993 -0.005800
v -0.024000 -0.040989 0.010200
v -0.023988 -0.082247 0.003950
v -0.023975 -0.042411 -0.004800
v -0.023964 -0.089224 0.009200
v -0.023962 -0.089247 -0.004800
v -0.023961 -0.089242 -0.001800
v -0.023959 -0.089266 0.006200
v -0.023937 -0.042125 0.009200
v -0.023929 -0.082250 0.000378
v -0.023504 -0.089701 -0.001800
v -0.023503 -0.089687 0.006200
v -0.023473 -0.091172 -0.004800
v -0.023418 -0.041060 -0.004800
v -0.023408 -0.082249 0.004178
v -0.023371 -0.091462 0.009200
v -0.023292 -0.091557 0.006200
v -0.023288 -0.091584 -0.001800
v -0.023202 -0.040842 0.009200
v -0.022991 -0.092175 0.006200
v -0.022976 -0.092198 -0.001800
v -0.022661 -0.092736 -0.004800
v -0.022632 -0.082249 0.000207
v -0.022506 -0.088403 0.009200
v -0.022478 -0.088671 0.004200
v -0.022414 -0.084249 -0.001800
v -0.022414 -0.084249 0.006200
v -0.022324 -0.093204 0.009200
v -0.022309 -0.086612 0.004200
v -0.022287 -0.040185 -0.004800
v -0.022285 -0.040185 0.009200
v -0.022280 -0.082249 0.004101
v -0.022172 -0.090268 0.009200
v -0.022149 -0.090360 0.004200
v -0.022129 -0.086023 0.009200
v -0.022009 -0.082246 0.000449
v -0.022000 -0.082249 0.003935
v -0.021982 -0.014142 0.009200
v -0.021967 -0.014121 -0.004800
v -0.021386 -0.091903 0.004200
v -0.021357 -0.091977 0.009200
v -0.021337 -0.094293 -0.004800
v -0.021321 -0.084477 0.004200
v -0.021241 -0.039840 0.009200
v -0.021118 -0.084222 0.009200
v -0.021113 -0.039792 -0.004800
v -0.021002 -0.040994 0.010200
v -0.021001 -0.040995 -0.005800
v -0.021000 -0.140999 -0.010800
v -0.021000 -0.140999 0.015200
v -0.021000 -0.140954 0.020032
v -0.021000 -0.140924 -0.015864
v -0.021000 -0.140418 0.021582
v -0.021000 -0.139891 -0.018028
v -0.021000 -0.139281 0.023020
v -0.021000 -0.138072 -0.019384
v -0.021000 -0.137237 0.024098
v -0.021000 -0.136559 -0.019781
v -0.021000 -0.100897 0.024177
v -0.021000 -0.100107 -0.019672
v -0.021000 -0.099144 0.023662
v -0.021000 -0.098033 -0.018448
v -0.021000 -0.097320 0.022039
v -0.021000 -0.097044 -0.017100
v -0.021000 -0.095580 -0.013295
v -0.021000 -0.095522 0.017577
v -0.021000 -0.094552 -0.012046
v -0.021000 -0.094332 0.016261
v -0.021000 -0.093096 -0.011129
v -0.021000 -0.092492 0.015302
v -0.021000 -0.091584 -0.010802
v -0.020974 -0.041093 -0.006834
v -0.020966 -0.041120 0.011371
v -0.020840 -0.041565 -0.008148
v -0.020832 -0.094721 0.009200
v -0.020743 -0.041907 0.013151
v -0.020587 -0.042454 -0.009355
v -0.020269 -0.043575 0.014604
v -0.020242 -0.043671 -0.010243
v -0.020173 -0.093282 0.004200
v -0.020172 -0.088249 0.012200
v -0.020172 -0.088249 0.015200
v -0.020061 -0.083141 0.004200
v -0.020018 -0.093396 0.009200
v -0.020014 -0.096280 -0.005800
v -0.019965 -0.039164 0.009200
v -0.019901 -0.088931 -0.008800
v -0.019889 -0.088941 -0.010800
v -0.019810 -0.096396 0.010200
v -0.019802 -0.045223 0.015162
v -0.019791 -0.045260 -0.010778
v -0.019771 -0.095376 -0.004800
v -0.019704 -0.086890 -0.010800
v -0.019683 -0.017237 -0.004800
v -0.019644 -0.038931 -0.004800
v -0.019585 -0.082751 0.009200
v -0.019550 -0.086443 -0.008800
v -0.019322 -0.017609 0.009200
v -0.019045 -0.090781 -0.010800
v -0.018879 -0.090995 -0.008800
v -0.018785 -0.085447 -0.010800
v -0.018755 -0.082308 0.004200
v -0.018661 -0.095892 0.009200
v -0.018630 -0.037875 0.009200
v -0.018348 -0.037461 -0.004800
v -0.018287 -0.094415 0.009200
v -0.018146 -0.094476 0.004200
v -0.018145 -0.096056 -0.004800
v -0.018064 -0.088338 0.004200
v -0.018060 -0.087784 -0.008800
v -0.018060 -0.087784 0.010200
v -0.018049 -0.088500 -0.004800
v -0.018045 -0.088634 -0.005800
v -0.018045 -0.088634 0.012200
v -0.018036 -0.091949 0.012200
v -0.018036 -0.091949 0.015200
v -0.018036 -0.084549 0.012200
v -0.018036 -0.084549 0.015200
v -0.018006 -0.097019 -0.005800
v -0.018001 -0.097005 0.010200
v -0.018000 -0.130425 -0.005800
v -0.018000 -0.130425 0.010200
v -0.017931 -0.087477 -0.005800
v -0.017931 -0.087477 0.012200
v -0.017921 -0.087419 -0.004800
v -0.017902 -0.084734 -0.008800
v -0.017843 -0.087253 0.004200
v -0.017842 -0.089232 -0.008800
v -0.017842 -0.089232 0.010200
v -0.017765 -0.089355 -0.004800
v -0.017763 -0.089384 0.004200
v -0.017737 -0.036177 0.009200
v -0.017684 -0.035974 -0.004800
v -0.017623 -0.089555 -0.005800
v -0.017623 -0.089555 0.012200
v -0.017588 -0.081876 0.009200
v -0.017465 -0.084534 -0.010800
v -0.017364 -0.092031 -0.010800
v -0.017363 -0.091994 -0.008800
v -0.017274 -0.086562 -0.005800
v -0.017274 -0.086562 0.012200
v -0.017238 -0.086548 -0.004800
v -0.017166 -0.086463 -0.008800
v -0.017166 -0.086463 0.010200
v -0.017119 -0.090045 -0.008800
v -0.017119 -0.090045 0.010200
v -0.017111 -0.019756 0.009200
v -0.017014 -0.086384 0.004200
v -0.017011 -0.019861 -0.004800
v -0.017008 -0.081741 0.004200
v -0.016905 -0.090194 -0.004800
v -0.016876 -0.090193 0.004200
v -0.016834 -0.090221 -0.005800
v -0.016834 -0.090221 0.012200
v -0.016734 -0.096321 0.009200
v -0.016520 -0.086179 -0.004800
v -0.016092 -0.094848 0.009200
v -0.016072 -0.021309 -0.004800
v -0.016058 -0.090423 -0.008800
v -0.016058 -0.090423 0.010200
v -0.016040 -0.021332 0.009200
v -0.016029 -0.084237 -0.010800
v -0.016017 -0.084217 -0.008800
v -0.015963 -0.090409 0.004200
v -0.015939 -0.094845 0.004200
v -0.015932 -0.086074 0.004200
v -0.015907 -0.086039 -0.005800
v -0.015907 -0.086039 0.012200
v -0.015781 -0.090410 -0.005800
v -0.015781 -0.090410 0.012200
v -0.015718 -0.086093 -0.004800
v -0.015708 -0.081650 0.009200
v -0.015702 -0.086058 -0.008800
v -0.015702 -0.086058 0.010200
v -0.015677 -0.092286 -0.008800
v -0.015629 -0.096390 -0.004800
v -0.015524 -0.023729 0.009200
v -0.015515 -0.023572 -0.004800
v -0.015514 -0.090402 -0.004800
v -0.015460 -0.081683 0.004200
v -0.015456 -0.092249 -0.010800
v -0.015129 -0.090275 0.004200
v -0.014998 -0.086286 0.004200
v -0.014772 -0.090114 -0.005800
v -0.014772 -0.090114 0.012200
v -0.014718 -0.086418 -0.004800
v -0.014691 -0.096288 0.009200
v -0.014623 -0.090050 -0.008800
v -0.014623 -0.090050 0.010200
v -0.014605 -0.084453 -0.008800
v -0.014577 -0.084441 -0.010800
v -0.014488 -0.086587 -0.005800
v -0.014488 -0.086587 0.012200
v -0.014476 -0.089869 0.004200
v -0.014409 -0.086660 -0.008800
v -0.014409 -0.086660 0.010200
v -0.014369 -0.089798 -0.004800
v -0.014325 -0.086763 0.004200
v -0.014042 -0.089359 -0.005800
v -0.014042 -0.089359 0.012200
v -0.013990 -0.089272 0.004200
v -0.013989 -0.081933 0.004200
v -0.013931 -0.087324 -0.004800
v -0.013882 -0.087468 -0.005800
v -0.013882 -0.087468 0.012200
v -0.013849 -0.087550 0.004200
v -0.013845 -0.081984 0.009200
v -0.013816 -0.087639 -0.008800
v -0.013816 -0.087639 0.010200
v -0.013790 -0.088802 -0.008800
v -0.013790 -0.088802 0.010200
v -0.013768 -0.091684 -0.010800
v -0.013764 -0.091949 0.012200
v -0.013764 -0.091949 0.015200
v -0.013764 -0.084549 0.012200
v -0.013764 -0.084549 0.015200
v -0.013744 -0.088425 0.004200
v -0.013741 -0.088624 -0.004800
v -0.013735 -0.088432 -0.005800
v -0.013735 -0.088432 0.012200
v -0.013707 -0.094499 0.009200
v -0.013671 -0.094486 0.004200
v -0.013561 -0.091570 -0.008800
v -0.013401 -0.085089 -0.008800
v -0.013339 -0.085160 -0.010800
v -0.012738 -0.095755 -0.004800
v -0.012293 -0.090035 -0.008800
v -0.012287 -0.086422 -0.010800
v -0.012236 -0.090010 -0.010800
v -0.012189 -0.086623 -0.008800
v -0.012078 -0.082859 0.004200
v -0.012047 -0.082881 0.009200
v -0.012010 -0.095415 0.009200
v -0.011884 -0.088121 -0.010800
v -0.011882 -0.088519 -0.008800
v -0.011690 -0.093327 0.004200
v -0.011628 -0.088249 0.012200
v -0.011628 -0.088249 0.015200
v -0.011445 -0.093140 0.009200
v -0.010672 0.001690 -0.004800
v -0.010660 -0.084252 0.009200
v -0.010593 -0.094399 -0.004800
v -0.010435 -0.070489 -0.004800
v -0.010394 -0.084582 0.004200
v -0.010381 -0.071792 0.009200
v -0.010317 -0.091784 0.004200
v -0.010209 -0.063523 0.009200
v -0.010173 -0.091511 0.009200
v -0.010117 -0.062772 -0.004800
v -0.009867 -0.093692 0.009200
v -0.009658 -0.086059 0.009200
v -0.009632 -0.079273 -0.004800
v -0.009617 -0.100986 -0.005800
v -0.009617 -0.100986 0.015200
v -0.009607 -0.100962 0.010200
v -0.009607 -0.081036 0.015200
v -0.009543 -0.100802 -0.010800
v -0.009526 -0.089938 0.004200
v -0.009502 -0.089864 0.009200
v -0.009469 -0.086745 0.004200
v -0.009425 -0.080558 0.009200
v -0.009397 -0.081531 0.010200
v -0.009360 -0.081610 -0.010800
v -0.009319 -0.088460 0.004200
v -0.009311 -0.088096 0.009200
v -0.009306 -0.081712 -0.005800
v -0.009260 -0.056995 0.009200
v -0.008937 -0.092475 -0.004800
v -0.008916 -0.055153 -0.004800
v -0.008813 -0.092192 0.009200
v -0.008547 -0.099390 0.010200
v -0.008518 -0.082641 0.015200
v -0.008412 -0.099280 -0.010800
v -0.008362 -0.099183 -0.005800
v -0.008362 -0.099183 0.015200
v -0.008094 -0.090507 0.009200
v -0.007990 -0.083048 0.010200
v -0.007876 -0.087005 0.009200
v -0.007870 -0.089639 -0.004800
v -0.007866 -0.087061 -0.004800
v -0.007853 -0.051078 0.009200
v -0.007802 -0.088697 0.009200
v -0.007744 0.005789 0.009200
v -0.007531 -0.083376 -0.010800
v -0.007353 -0.083474 -0.005800
v -0.006594 -0.000481 0.004200
v -0.006584 0.000191 0.009200
v -0.006434 -0.001466 0.009200
v -0.006379 0.001689 0.004200
v -0.006361 -0.098118 -0.010800
v -0.006361 -0.098118 0.010200
v -0.006351 0.001781 0.009200
v -0.006318 -0.083889 0.015200
v -0.006224 -0.046178 -0.004800
v -0.006191 -0.083912 0.010200
v -0.006120 -0.019729 0.000474
v -0.006079 -0.019615 0.003947
v -0.006062 -0.098068 -0.005800
v -0.006062 -0.098068 0.015200
v -0.006047 -0.002650 0.004200
v -0.005904 -0.019862 0.000344
v -0.005872 -0.018888 0.000361
v -0.005827 -0.003077 0.009200
v -0.005718 -0.083969 -0.010800
v -0.005689 0.003328 0.004200
v -0.005642 0.003412 0.009200
v -0.005629 -0.083976 -0.005800
v -0.005625 -0.018018 0.000098
v -0.005624 -0.017993 0.003739
v -0.005470 -0.019750 0.004179
v -0.005467 -0.019736 0.000216
v -0.005397 -0.018651 0.000093
v -0.005383 -0.017168 -0.000315
v -0.005379 -0.018777 0.004046
v -0.005240 -0.017784 0.003797
v -0.005109 -0.019303 0.000129
v -0.005107 -0.017211 -0.000503
v -0.004999 -0.015821 -0.001468
v -0.004993 -0.015787 0.002867
v -0.004953 -0.020047 0.004186
v -0.004943 -0.016713 0.003427
v -0.004943 -0.016570 -0.000976
v -0.004942 -0.018382 -0.000115
v -0.004921 -0.017671 -0.000381
v -0.004814 -0.042793 0.009200
v -0.004786 -0.004568 0.004200
v -0.004769 -0.015054 -0.002692
v -0.004744 -0.019788 0.000208
v -0.004737 -0.018252 0.003988
v -0.004724 0.004587 0.009200
v -0.004678 -0.014686 -0.003594
v -0.004667 -0.019046 0.004110
v -0.004658 -0.018125 -0.000251
v -0.004651 -0.004705 0.009200
v -0.004645 -0.015403 -0.002370
v -0.004619 -0.017313 0.003726
v -0.004619 -0.015711 0.002939
v -0.004618 -0.014477 -0.004800
v -0.004575 -0.016035 -0.001693
v -0.004573 -0.016946 -0.000924
v -0.004568 -0.014319 0.001836
v -0.004509 -0.019126 0.000101
v -0.004462 -0.014701 -0.004333
v -0.004460 -0.019956 0.004062
v -0.004411 -0.014980 0.002474
v -0.004398 0.004941 0.004200
v -0.004394 -0.015022 -0.003442
v -0.004381 -0.017396 -0.000676
v -0.004340 -0.015975 0.003137
v -0.004327 -0.015525 -0.002529
v -0.004255 -0.013211 0.000695
v -0.004245 -0.014812 -0.004800
v -0.004229 -0.014898 -0.004194
v -0.004195 -0.019968 0.000443
v -0.004184 -0.017848 0.003809
v -0.004180 -0.018938 0.003952
v -0.004140 -0.018395 -0.000108
v -0.004130 -0.019761 0.003910
v -0.004066 -0.013623 0.001280
v -0.004059 -0.016328 0.003287
v -0.004039 -0.014652 0.002260
v -0.004036 -0.016571 -0.001389
v -0.004030 -0.017081 -0.000927
v -0.004027 -0.016213 -0.001782
v -0.004023 -0.012412 -0.000460
v -0.004012 -0.015296 -0.003269
v -0.003994 -0.015848 -0.002268
v -0.003987 -0.019236 0.000316
v -0.003969 -0.017864 -0.000359
v -0.003904 -0.015070 -0.004090
v -0.003862 -0.015624 -0.002695
v -0.003852 -0.013998 0.001699
v -0.003837 -0.012889 0.000392
v -0.003837 -0.011767 -0.001769
v -0.003798 -0.017045 0.003478
v -0.003774 -0.014890 0.002427
v -0.003706 -0.011289 -0.003402
v -0.003702 -0.018216 0.003660
v -0.003629 -0.018004 -0.000126
v -0.003625 -0.011124 -0.004800
v -0.003613 -0.015399 -0.003270
v -0.003573 -0.011917 -0.001274
v -0.003572 -0.017123 -0.000804
v -0.003558 -0.015137 -0.004181
v -0.003548 -0.016298 0.003107
v -0.003547 -0.016569 -0.001367
v -0.003543 -0.016102 -0.001949
v -0.003533 -0.013146 0.000752
v -0.003501 -0.015307 0.002606
v -0.003477 -0.012431 -0.000271
v -0.003448 -0.015087 -0.004800
v -0.003434 0.005638 0.009200
v -0.003429 -0.011282 -0.003235
v -0.003389 -0.017169 0.003277
v -0.003285 -0.015640 -0.002719
v -0.003269 -0.016748 -0.001042
v -0.003260 -0.013904 0.001487
v -0.003166 -0.011131 -0.004054
v -0.003161 -0.011429 -0.002586
v -0.003142 -0.013128 0.000628
v -0.003141 -0.015150 -0.004200
v -0.003139 -0.015370 -0.003331
v -0.003132 -0.011868 -0.001403
v -0.003115 -0.012576 -0.000116
v -0.003065 -0.015998 0.002695
v -0.003064 -0.014760 0.002057
v -0.003056 -0.015978 -0.001984
v -0.002929 -0.005917 0.004200
v -0.002908 -0.005918 0.009200
v -0.002895 -0.011096 -0.004800
v -0.002859 -0.015314 -0.003260
v -0.002772 -0.014999 -0.004798
v -0.002756 -0.013299 0.000602
v -0.002734 -0.038672 -0.004800
v -0.002713 -0.013853 0.001104
v -0.002713 -0.012038 -0.001267
v -0.002695 -0.011572 -0.002427
v -0.002685 -0.011225 -0.003899
v -0.002657 -0.012519 -0.000477
v -0.002646 0.006036 0.004200
v -0.002473 -0.013969 0.001014
v -0.002375 -0.011418 -0.003519
v -0.002370 -0.012799 -0.000388
v -0.002319 -0.011285 -0.004800
v -0.002310 -0.011771 -0.002403
v -0.002241 -0.012214 -0.001504
v -0.002155 0.000182 -0.004800
v -0.002137 -0.000448 0.004200
v -0.002108 -0.011544 -0.003687
v -0.002091 -0.012630 -0.001032
v -0.002050 -0.000713 -0.004800
v -0.002040 0.000749 0.004200
v -0.001992 -0.090456 -0.005300
v -0.001981 -0.091589 0.009700
v -0.001966 -0.090310 0.009700
v -0.001962 0.006284 0.009200
v -0.001915 -0.012003 -0.002615
v -0.001907 -0.092072 -0.005300
v -0.001835 0.001183 -0.004800
v -0.001814 -0.011647 -0.004798
v -0.001703 -0.092715 0.009700
v -0.001660 -0.001385 0.004200
v -0.001550 0.001504 0.004200
v -0.001425 -0.001650 -0.004800
v -0.001407 -0.006432 0.004200
v -0.001398 -0.093404 -0.005300
v -0.001219 0.006473 0.004200
v -0.001134 -0.093856 0.009700
v -0.001052 -0.006521 0.009200
v -0.000990 -0.001928 0.004200
v -0.000957 0.001947 -0.004800
v -0.000876 0.001982 0.004200
v -0.000866 -0.094176 -0.005300
v -0.000185 -0.002184 -0.004800
v -0.000168 -0.094886 -0.005300
v -0.000147 -0.094899 0.009700
v -0.000138 -0.034198 0.009200
v -0.000134 -0.034193 -0.004800
v -0.000097 0.006618 0.009200
v 0.000006 0.002164 0.004200
v 0.000076 -0.006596 0.004200
v 0.000127 -0.002182 0.004200
v 0.000260 0.002175 -0.004800
v 0.000383 0.006584 0.004200
v 0.000783 0.017724 -0.004800
v 0.000783 0.017724 0.009197
v 0.000841 -0.006538 0.009200
v 0.000851 0.001989 0.004200
v 0.000949 -0.095575 -0.005300
v 0.001002 -0.095604 0.009700
v 0.001073 -0.001872 0.004200
v 0.001196 -0.001831 -0.004800
v 0.001323 -0.077682 0.002203
v 0.001416 -0.078474 0.009700
v 0.001421 -0.077973 -0.005300
v 0.001451 0.001621 -0.004800
v 0.001484 -0.079005 -0.005300
v 0.001485 -0.091110 -0.005800
v 0.001485 -0.091110 0.015200
v 0.001491 -0.091006 -0.005300
v 0.001500 -0.091382 0.010200
v 0.001503 -0.091173 0.009700
v 0.001524 -0.076889 -0.005300
v 0.001527 -0.076873 0.009700
v 0.001541 -0.091413 -0.010800
v 0.001547 -0.090523 -0.010800
v 0.001562 -0.090517 0.009700
v 0.001574 -0.091482 -0.005300
v 0.001576 -0.090507 -0.005300
v 0.001589 0.001473 0.004200
v 0.001655 -0.090289 -0.005800
v 0.001670 -0.091715 0.009700
v 0.001672 -0.076877 0.002201
v 0.001694 -0.090194 0.010200
v 0.001706 -0.001341 0.004200
v 0.001710 -0.090167 0.015200
v 0.001721 -0.079994 -0.005300
v 0.001731 -0.080049 0.009700
v 0.001752 -0.091862 0.015200
v 0.001772 -0.091897 -0.005800
v 0.001790 -0.090105 -0.005300
v 0.001812 -0.091928 -0.005300
v 0.001850 -0.090030 0.009700
v 0.001872 -0.001074 -0.004800
v 0.001907 0.006302 0.004200
v 0.001959 -0.092108 -0.010800
v 0.002011 -0.092135 0.009700
v 0.002018 0.000781 -0.004800
v 0.002055 0.000681 0.004200
v 0.002103 -0.076146 0.002200
v 0.002109 -0.089784 -0.005300
v 0.002148 -0.000347 0.004200
v 0.002156 -0.092266 0.010200
v 0.002165 -0.000222 -0.004800
v 0.002166 -0.081027 -0.005300
v 0.002166 0.006233 0.009200
v 0.002190 -0.089728 0.009700
v 0.002226 -0.089694 -0.005800
v 0.002250 -0.081156 0.009700
v 0.002278 -0.089633 -0.010800
v 0.002328 -0.092361 -0.005300
v 0.002372 -0.095981 -0.005300
v 0.002392 -0.006180 0.004200
v 0.002471 -0.089572 0.010200
v 0.002492 -0.092446 0.015200
v 0.002496 -0.092426 0.009700
v 0.002507 -0.095995 0.009700
v 0.002548 -0.089563 -0.005300
v 0.002574 -0.089531 0.015200
v 0.002605 -0.089548 0.009700
v 0.002644 -0.092501 -0.005800
v 0.002723 -0.006022 0.009200
v 0.002810 -0.075280 0.002201
v 0.002929 -0.092513 0.010200
v 0.002939 -0.072239 -0.015800
v 0.002943 -0.072139 0.020200
v 0.002953 -0.082064 0.009700
v 0.002995 -0.092552 -0.010800
v 0.002998 -0.082115 -0.005300
v 0.003035 -0.089478 -0.005800
v 0.003040 -0.092511 -0.005300
v 0.003058 -0.092504 0.009700
v 0.003074 -0.070946 -0.015800
v 0.003074 -0.070946 0.020200
v 0.003099 -0.089493 0.009700
v 0.003121 -0.073725 0.020200
v 0.003156 -0.089492 -0.005300
v 0.003181 -0.073958 -0.015800
v 0.003208 -0.070443 -0.010800
v 0.003259 -0.070283 0.015200
v 0.003306 -0.089514 -0.010800
v 0.003306 -0.089514 0.010200
v 0.003331 0.005693 0.004200
v 0.003399 -0.089542 0.015200
v 0.003587 -0.092386 -0.005300
v 0.003588 -0.092391 0.009700
v 0.003602 0.005512 0.009200
v 0.003669 -0.092362 -0.005800
v 0.003675 -0.075123 0.020200
v 0.003684 -0.074571 0.002200
v 0.003701 -0.089661 0.009700
v 0.003702 -0.069348 -0.010800
v 0.003759 -0.092359 0.015200
v 0.003781 -0.095946 0.009700
v 0.003829 -0.089736 -0.005300
v 0.003844 -0.097968 -0.010800
v 0.003844 -0.097968 0.010200
v 0.003856 -0.092277 0.010200
v 0.003912 -0.095932 -0.005300
v 0.003933 -0.082821 -0.005300
v 0.003935 -0.075556 -0.015800
v 0.003961 -0.068924 0.015200
v 0.003997 -0.089858 -0.010800
v 0.004017 -0.089843 -0.005800
v 0.004060 -0.082907 0.009700
v 0.004100 -0.092041 -0.005300
v 0.004105 -0.089945 0.015200
v 0.004110 0.007000 0.009200
v 0.004113 0.006991 -0.004800
v 0.004127 -0.092039 -0.010800
v 0.004150 -0.091986 0.009700
v 0.004156 -0.090031 0.009700
v 0.004194 -0.090021 0.010200
v 0.004210 -0.090105 -0.005300
v 0.004263 -0.005021 0.009200
v 0.004270 -0.084072 -0.005800
v 0.004270 -0.084072 0.015200
v 0.004284 -0.075969 0.020200
v 0.004325 -0.068448 -0.010800
v 0.004362 -0.091703 -0.005800
v 0.004377 -0.074184 0.002199
v 0.004413 -0.090479 0.009700
v 0.004424 -0.091513 0.015200
v 0.004429 -0.097904 -0.005800
v 0.004429 -0.097904 0.015200
v 0.004452 -0.090583 -0.005300
v 0.004457 -0.091394 0.009700
v 0.004479 -0.091348 -0.005300
v 0.004497 -0.090744 -0.005800
v 0.004498 -0.090757 0.015200
v 0.004500 -0.090903 0.009700
v 0.004525 -0.091246 0.010200
v 0.004549 -0.090827 -0.010800
v 0.004551 -0.084112 -0.010800
v 0.004551 -0.084112 0.010200
v 0.004780 -0.004590 0.004200
v 0.004807 -0.095673 0.009700
v 0.004839 0.004486 0.009200
v 0.004850 -0.083222 -0.005300
v 0.004864 -0.067865 0.015200
v 0.004920 -0.076587 0.020200
v 0.004934 -0.076598 -0.015800
v 0.004940 -0.006420 0.009200
v 0.004955 -0.006429 -0.004800
v 0.004977 0.004351 0.004200
v 0.005158 -0.073894 0.002199
v 0.005237 -0.095486 -0.005300
v 0.005291 -0.083333 0.009700
v 0.005309 -0.067482 -0.010800
v 0.005525 0.005950 -0.004800
v 0.005670 -0.003430 0.009200
v 0.005699 -0.077079 -0.015800
v 0.005741 -0.067207 0.015200
v 0.005858 -0.095115 0.009700
v 0.005883 -0.005602 0.009200
v 0.005899 -0.097410 -0.010800
v 0.005899 -0.097410 0.010200
v 0.005911 0.002926 0.009200
v 0.005958 -0.073751 0.002200
v 0.005967 -0.077215 0.020200
v 0.005973 0.005530 0.009200
v 0.006031 -0.002665 0.004200
v 0.006080 -0.083418 -0.005300
v 0.006086 0.002541 0.004200
v 0.006110 -0.094921 -0.005300
v 0.006486 -0.077384 -0.015800
v 0.006508 -0.001109 0.009200
v 0.006511 0.000992 0.004200
v 0.006526 0.001014 0.009200
v 0.006541 -0.066799 -0.010800
v 0.006558 -0.000787 0.004200
v 0.006591 -0.083396 0.009700
v 0.006604 -0.004760 -0.004800
v 0.006628 -0.066768 0.015200
v 0.006755 -0.073748 0.002200
v 0.006767 -0.085049 -0.005800
v 0.006767 -0.085049 0.015200
v 0.006884 -0.094183 0.009700
v 0.006913 -0.094139 -0.005300
v 0.007094 -0.003951 0.009200
v 0.007156 0.003908 -0.004800
v 0.007170 -0.077517 0.020200
v 0.007205 -0.085350 -0.010800
v 0.007205 -0.085350 0.010200
v 0.007371 -0.096561 -0.005800
v 0.007371 -0.096561 0.015200
v 0.007379 -0.083234 -0.005300
v 0.007471 -0.066542 0.015200
v 0.007554 -0.002945 -0.004800
v 0.007559 -0.073898 0.002199
v 0.007596 0.002964 0.009200
v 0.007635 -0.092917 -0.005300
v 0.007639 -0.066509 -0.010800
v 0.007644 -0.092893 0.009700
v 0.007663 -0.077553 -0.015800
v 0.007722 -0.083116 0.009700
v 0.007823 -0.096112 -0.010800
v 0.007823 -0.096112 0.010200
v 0.007900 -0.001917 0.009200
v 0.007977 0.001502 -0.004800
v 0.008095 -0.000896 -0.004800
v 0.008116 0.000332 0.009200
v 0.008286 -0.077504 0.020200
v 0.008319 -0.066467 0.015200
v 0.008410 -0.082806 -0.005300
v 0.008518 -0.074292 0.002201
v 0.008627 -0.082684 0.009700
v 0.008682 -0.086846 -0.005800
v 0.008682 -0.086846 0.015200
v 0.008953 -0.077357 -0.015800
v 0.008979 -0.066508 -0.010800
v 0.009050 -0.087388 -0.010800
v 0.009050 -0.087388 0.010200
v 0.009281 -0.094177 -0.005800
v 0.009281 -0.094177 0.015200
v 0.009293 -0.066589 0.015200
v 0.009300 -0.077233 0.020200
v 0.009320 -0.074876 0.002199
v 0.009355 -0.094053 -0.010800
v 0.009355 -0.094053 0.010200
v 0.009494 -0.082041 -0.005300
v 0.009670 -0.088811 -0.005800
v 0.009670 -0.088811 0.015200
v 0.009736 -0.081809 0.009700
v 0.009839 -0.089441 -0.010800
v 0.009839 -0.089441 0.010200
v 0.009949 -0.075559 0.002198
v 0.009991 -0.076913 -0.015800
v 0.010021 -0.091449 -0.010800
v 0.010021 -0.091449 0.010200
v 0.010055 -0.091349 -0.005800
v 0.010055 -0.091349 0.015200
v 0.010192 -0.066919 0.015200
v 0.010323 -0.076720 0.020200
v 0.010371 -0.076224 0.002200
v 0.010375 -0.067007 -0.010800
v 0.010636 -0.080634 -0.005300
v 0.010701 -0.076950 0.002200
v 0.010728 -0.080454 0.009700
v 0.010845 -0.076319 -0.015800
v 0.010948 -0.067388 0.015200
v 0.010978 -0.077965 0.002199
v 0.010990 -0.080112 0.002204
v 0.011068 -0.079039 0.002201
v 0.011171 -0.067576 -0.010800
v 0.011222 -0.079280 -0.005300
v 0.011222 -0.079280 0.009700
v 0.011413 -0.075779 0.020200
v 0.011567 -0.075590 -0.015800
v 0.011643 -0.068047 0.015200
v 0.011796 -0.068235 -0.010800
v 0.012193 -0.074694 -0.015800
v 0.012193 -0.074694 0.020200
v 0.012225 -0.068879 0.015200
v 0.012379 -0.069162 -0.010800
v 0.012598 -0.069700 0.015200
v 0.012695 -0.073598 -0.015800
v 0.012702 -0.073580 0.020200
v 0.012818 -0.073171 0.015200
v 0.012839 -0.070496 -0.010800
v 0.012867 -0.072955 -0.010800
v 0.012879 -0.070720 0.015200
v 0.012963 -0.072075 0.015200
v 0.012966 -0.071809 -0.010800
v 0.014246 -0.028134 -0.010800
v 0.014371 -0.027766 0.015200
v 0.014373 -0.027762 -0.015800
v 0.014435 -0.027608 0.020200
v 0.014590 -0.027326 -0.010800
v 0.014890 -0.026844 -0.015800
v 0.014985 -0.026703 0.015200
v 0.015211 -0.026420 0.020200
v 0.015224 -0.026404 -0.010800
v 0.015470 -0.026146 -0.015800
v 0.015701 -0.025931 0.015200
v 0.016275 -0.025484 0.020200
v 0.016299 -0.025469 -0.010800
v 0.016426 -0.025397 -0.015800
v 0.016695 -0.025242 0.015200
v 0.017260 -0.029732 0.015200
v 0.017261 -0.029605 -0.010800
v 0.017271 -0.029825 -0.015800
v 0.017282 -0.029920 0.020200
v 0.017292 -0.029424 0.020200
v 0.017345 -0.029167 -0.015800
v 0.017381 -0.029081 0.015200
v 0.017403 -0.030373 0.015200
v 0.017404 -0.030396 -0.010800
v 0.017415 -0.030394 0.020200
v 0.017428 -0.028974 -0.010800
v 0.017453 -0.030499 -0.015800
v 0.017480 -0.024929 0.020200
v 0.017514 -0.028783 0.020200
v 0.017526 -0.024913 -0.015800
v 0.017531 -0.024909 -0.010800
v 0.017695 -0.028558 0.015200
v 0.017721 -0.028525 -0.015800
v 0.017740 -0.030898 0.020200
v 0.017748 -0.030904 0.015200
v 0.017798 -0.028442 -0.010800
v 0.017804 -0.030953 -0.010800
v 0.017873 -0.024820 0.015200
v 0.017897 -0.031036 -0.015800
v 0.018048 -0.028251 0.020200
v 0.018263 -0.031269 -0.010800
v 0.018267 -0.028121 0.015200
v 0.018269 -0.031273 0.015200
v 0.018321 -0.028099 -0.015800
v 0.018354 -0.031315 0.020200
v 0.018419 -0.024730 -0.015800
v 0.018515 -0.028024 -0.010800
v 0.018523 -0.024712 0.020200
v 0.018536 -0.031380 -0.015800
v 0.018648 -0.028001 0.020200
v 0.018731 -0.024695 -0.010800
v 0.018762 -0.031413 0.015200
v 0.018808 -0.024699 0.015200
v 0.018889 -0.027975 -0.015800
v 0.018968 -0.031443 -0.010800
v 0.019049 -0.027960 0.015200
v 0.019115 -0.031437 0.020200
v 0.019277 -0.027989 -0.010800
v 0.019280 -0.027990 0.020200
v 0.019298 -0.031408 -0.015800
v 0.019298 -0.031408 0.015200
v 0.019390 -0.024702 -0.015800
v 0.019504 -0.028033 -0.015800
v 0.019702 -0.024738 0.020200
v 0.019709 -0.031282 -0.010800
v 0.019714 -0.028122 0.015200
v 0.019764 -0.031253 0.020200
v 0.019826 -0.024763 -0.010800
v 0.019897 -0.024766 0.015200
v 0.019901 -0.028214 -0.010800
v 0.019931 -0.031167 -0.015800
v 0.019940 -0.028235 0.020200
v 0.019952 -0.031156 0.015200
v 0.020194 -0.028444 0.015200
v 0.020201 -0.028442 -0.015800
v 0.020205 -0.030945 -0.010800
v 0.020260 -0.030895 0.020200
v 0.020384 -0.028658 -0.010800
v 0.020400 -0.030720 -0.015800
v 0.020405 -0.024896 -0.015800
v 0.020439 -0.030667 0.015200
v 0.020442 -0.028738 0.020200
v 0.020578 -0.028988 -0.015800
v 0.020587 -0.030388 0.020200
v 0.020596 -0.030388 -0.010800
v 0.020598 -0.029014 0.015200
v 0.020632 -0.029130 -0.010800
v 0.020667 -0.030165 0.015200
v 0.020669 -0.029244 0.020200
v 0.020682 -0.030147 -0.015800
v 0.020718 -0.029490 -0.015800
v 0.020730 -0.029659 0.015200
v 0.020731 -0.029825 0.020200
v 0.020735 -0.029683 -0.010800
v 0.020844 -0.025040 -0.010800
v 0.020845 -0.025042 0.020200
v 0.021258 -0.025229 -0.015800
v 0.021348 -0.025261 0.015200
v 0.021754 -0.025522 -0.010800
v 0.021837 -0.025572 0.020200
v 0.022335 -0.025969 0.015200
v 0.022388 -0.025991 -0.015800
v 0.022560 -0.026169 -0.010800
v 0.022578 -0.026199 0.020200
v 0.022963 -0.026638 0.015200
v 0.023319 -0.027160 -0.010800
v 0.023351 -0.027197 0.020200
v 0.023378 -0.027250 -0.015800
v 0.023451 -0.027413 0.015200
v 0.023741 -0.028094 -0.010800
v 0.023818 -0.028330 0.015200
v 0.023832 -0.028392 0.020200
v 0.023871 -0.028521 -0.015800
v 0.023927 -0.030580 0.015200
v 0.023950 -0.030458 0.020200
v 0.023963 -0.030386 -0.015800
v 0.023969 -0.030359 -0.010800
v 0.023976 -0.029114 -0.010800
v 0.023997 -0.029438 -0.015800
v 0.024003 -0.029424 0.020200
v 0.024011 -0.029536 0.015200
f 80 81 77
f 81 78 77
f 78 71 77
f 77 71 72
f 458 470 440
f 481 490 483
f 466 465 481
f 416 418 438
f 497 500 489
f 483 490 486
f 473 481 483
f 475 481 473
f 475 466 481
f 465 445 454
f 445 435 454
f 435 438 454
f 416 404 418
f 497 486 490
f 497 489 485
f 300 499 639
f 300 639 525
f 486 479 483
f 449 465 466
f 489 500 484
f 486 497 485
f 483 479 473
f 415 416 438
f 449 445 465
f 416 392 404
f 457 466 475
f 489 482 485
f 486 485 476
f 486 476 479
f 435 415 438
f 489 484 482
f 392 380 404
f 485 482 477
f 415 392 416
f 473 457 475
f 420 435 445
f 482 484 478
f 473 479 460
f 485 477 476
f 449 420 445
f 466 436 449
f 457 436 466
f 460 479 464
f 435 396 415
f 396 389 415
f 389 392 415
f 479 476 464
f 420 396 435
f 473 460 457
f 484 470 478
f 436 420 449
f 370 380 392
f 482 478 477
f 436 409 420
f 476 477 463
f 457 432 436
f 477 478 459
f 457 460 448
f 457 448 432
f 374 370 392
f 432 421 436
f 389 374 392
f 477 459 463
f 476 463 464
f 478 470 458
f 460 464 448
f 409 396 420
f 464 463 450
f 464 450 448
f 375 389 396
f 459 478 458
f 405 409 436
f 421 405 436
f 409 381 396
f 375 374 389
f 432 448 419
f 463 459 442
f 463 442 450
f 450 433 448
f 459 458 453
f 405 397 409
f 448 433 419
f 459 434 442
f 397 381 409
f 381 375 396
f 432 401 421
f 401 405 421
f 374 357 370
f 433 411 419
f 450 442 425
f 450 425 433
f 397 379 381
f 459 453 434
f 432 419 401
f 453 437 434
f 369 357 374
f 458 440 437
f 453 458 437
f 442 434 425
f 405 379 397
f 369 375 381
f 375 369 374
f 433 425 411
f 419 411 401
f 401 379 405
f 379 369 381
f 378 382 373
f 362 361 356
f 391 403 407
f 387 391 407
f 378 387 395
f 398 412 403
f 382 377 373
f 368 372 362
f 378 399 382
f 372 371 362
f 399 378 395
f 413 407 403
f 373 372 368
f 410 387 407
f 377 384 373
f 384 372 373
f 362 371 361
f 395 387 410
f 382 384 377
f 399 395 410
f 400 384 382
f 399 400 382
f 384 383 372
f 426 410 407
f 407 413 430
f 426 407 430
f 399 410 424
f 372 376 371
f 431 410 426
f 424 410 427
f 393 383 384
f 383 376 372
f 391 398 403
f 413 403 412
f 427 410 431
f 400 408 384
f 408 393 384
f 399 422 400
f 424 422 399
f 431 426 441
f 376 388 371
f 441 426 430
f 422 423 400
f 441 430 444
f 423 408 400
f 393 376 383
f 376 402 388
f 451 430 412
f 393 402 376
f 447 427 431
f 424 427 447
f 423 429 408
f 429 393 408
f 417 402 393
f 393 429 417
f 455 431 441
f 447 422 424
f 441 444 461
f 447 431 455
f 446 423 422
f 446 422 447
f 430 413 412
f 444 430 451
f 462 441 461
f 455 441 462
f 443 423 446
f 423 443 429
f 462 461 471
f 467 447 455
f 417 428 402
f 428 414 402
f 402 414 388
f 446 447 467
f 443 439 429
f 471 455 462
f 456 443 446
f 439 417 429
f 471 461 472
f 461 444 451
f 461 451 472
f 467 455 471
f 456 446 467
f 456 439 443
f 439 428 417
f 70 63 356
f 63 357 356
f 437 440 398
f 357 369 356
f 356 369 362
f 362 369 368
f 369 379 368
f 368 379 373
f 379 401 373
f 373 401 378
f 401 411 378
f 411 425 378
f 378 425 387
f 425 434 387
f 387 434 391
f 434 437 391
f 391 437 398
f 75 92 380
f 380 92 404
f 92 97 404
f 404 97 418
f 380 370 75
f 370 357 75
f 75 357 63
f 97 96 418
f 96 414 418
f 497 472 500
f 471 472 497
f 490 471 497
f 467 471 490
f 481 467 490
f 456 467 481
f 465 456 481
f 439 456 465
f 454 439 465
f 428 439 454
f 438 428 454
f 414 428 438
f 418 414 438
f 356 361 70
f 361 371 70
f 70 371 83
f 371 388 83
f 388 414 83
f 83 414 96
f 63 53 75
f 53 87 75
f 75 87 92
f 96 86 83
f 86 52 83
f 83 52 70
f 68 77 72
f 72 87 53
f 53 68 72
f 67 71 78
f 52 86 67
f 86 71 67
f 92 87 97
f 87 72 97
f 97 72 96
f 72 71 96
f 71 86 96
f 639 499 511
f 639 511 523
f 246 263 312
f 312 263 340
f 639 523 536
f 499 300 487
f 64 202 216
f 472 354 474
f 312 303 246
f 300 99 398
f 440 300 398
f 487 300 491
f 491 300 504
f 514 500 532
f 231 246 303
f 339 340 278
f 278 340 263
f 504 440 514
f 66 185 64
f 398 231 412
f 518 472 474
f 303 309 231
f 504 300 440
f 90 74 216
f 472 231 329
f 309 329 231
f 711 568 730
f 711 536 568
f 680 536 711
f 639 536 680
f 185 202 64
f 155 106 231
f 472 329 354
f 231 106 216
f 216 106 90
f 532 500 674
f 674 500 518
f 500 472 518
f 514 484 500
f 514 440 470
f 165 155 231
f 514 470 484
f 193 165 231
f 412 231 451
f 238 193 231
f 238 231 398
f 398 218 238
f 451 231 472
f 703 532 674
f 564 532 703
f 719 564 703
f 574 564 719
f 731 574 719
f 730 574 731
f 730 568 574
f 216 74 64
f 398 154 209
f 398 209 218
f 172 185 66
f 66 73 172
f 172 73 190
f 73 82 190
f 82 102 190
f 190 102 211
f 102 152 211
f 152 168 211
f 211 168 239
f 168 236 239
f 236 286 239
f 239 286 257
f 286 302 257
f 302 328 257
f 257 328 278
f 328 339 278
f 140 100 191
f 100 94 191
f 191 94 169
f 94 85 169
f 85 89 169
f 169 89 187
f 89 103 187
f 187 103 208
f 103 143 208
f 143 162 208
f 162 210 208
f 208 210 226
f 210 240 226
f 240 262 226
f 226 262 243
f 262 291 243
f 243 291 258
f 291 304 258
f 258 304 266
f 304 320 266
f 266 320 277
f 320 324 277
f 324 318 277
f 277 318 261
f 318 306 261
f 261 306 254
f 306 296 254
f 254 296 242
f 296 282 242
f 242 282 224
f 282 225 224
f 225 167 224
f 224 167 212
f 167 140 212
f 212 140 191
f 347 349 346
f 347 352 349
f 352 365 349
f 352 366 365
f 366 406 365
f 366 390 406
f 452 406 390
f 480 406 452
f 496 480 452
f 507 480 496
f 519 507 496
f 524 507 519
f 576 524 519
f 565 524 576
f 613 565 576
f 617 613 576
f 675 613 617
f 668 675 617
f 688 675 668
f 694 675 688
f 699 694 688
f 698 694 699
f 701 698 699
f 697 701 699
f 692 701 697
f 681 692 697
f 666 692 681
f 645 666 681
f 645 592 666
f 592 583 666
f 592 527 583
f 527 521 583
f 527 509 521
f 509 505 521
f 509 468 505
f 509 469 468
f 469 394 468
f 394 386 468
f 394 363 386
f 363 360 386
f 363 348 360
f 348 346 360
f 348 347 346
f 638 617 576
f 348 98 347
f 645 673 592
f 721 699 688
f 527 592 517
f 526 576 519
f 688 668 638
f 592 673 517
f 526 638 576
f 69 95 65
f 638 668 617
f 105 95 69
f 509 517 469
f 527 517 509
f 363 98 348
f 343 366 352
f 321 311 301
f 98 394 517
f 469 517 394
f 347 98 352
f 526 496 452
f 343 452 390
f 721 732 699
f 699 732 697
f 732 729 697
f 697 729 681
f 729 710 681
f 710 685 681
f 681 685 645
f 685 673 645
f 691 721 688
f 394 98 363
f 343 352 98
f 338 311 321
f 156 69 196
f 65 95 84
f 691 688 638
f 327 232 341
f 84 93 65
f 65 93 76
f 93 101 76
f 76 101 88
f 88 101 135
f 101 144 135
f 144 166 135
f 135 166 163
f 163 166 215
f 166 217 215
f 215 217 247
f 217 281 247
f 247 281 293
f 281 299 293
f 293 299 310
f 299 308 310
f 310 308 330
f 330 308 336
f 308 319 336
f 336 319 342
f 319 325 342
f 156 105 69
f 321 292 305
f 517 385 237
f 104 146 232
f 301 292 321
f 292 267 305
f 341 232 237
f 232 196 91
f 307 305 267
f 164 192 232
f 232 146 164
f 91 104 232
f 196 79 91
f 342 325 338
f 325 311 338
f 221 517 237
f 327 307 267
f 385 341 237
f 69 79 196
f 192 237 232
f 232 327 267
f 517 221 207
f 207 98 517
f 343 390 366
f 158 98 207
f 526 519 496
f 526 452 343
f 85 84 89
f 84 95 89
f 89 95 103
f 95 105 103
f 103 105 143
f 105 156 143
f 143 156 162
f 156 196 162
f 162 196 210
f 196 232 210
f 210 232 240
f 240 232 262
f 232 267 262
f 262 267 291
f 267 292 291
f 291 292 304
f 292 301 304
f 301 311 304
f 304 311 320
f 311 325 320
f 320 325 324
f 325 319 324
f 324 319 318
f 318 319 306
f 319 308 306
f 308 299 306
f 306 299 296
f 296 299 282
f 299 281 282
f 282 281 225
f 281 217 225
f 225 217 167
f 217 166 167
f 167 166 140
f 166 144 140
f 144 101 140
f 140 101 100
f 100 101 94
f 101 93 94
f 93 84 94
f 94 84 85
f 639 526 525
f 638 526 639
f 237 192 238
f 192 193 238
f 98 154 99
f 158 154 98
f 207 154 158
f 207 209 154
f 685 674 673
f 685 703 674
f 685 710 703
f 703 710 719
f 710 729 719
f 719 729 731
f 729 732 731
f 731 732 730
f 732 721 730
f 730 721 711
f 721 691 711
f 711 691 680
f 691 638 680
f 680 638 639
f 81 80 88
f 82 73 81
f 81 73 78
f 73 66 78
f 78 66 67
f 88 80 76
f 80 77 76
f 77 68 76
f 76 68 65
f 81 88 82
f 82 88 102
f 88 135 102
f 102 135 152
f 135 163 152
f 152 163 168
f 163 215 168
f 168 215 236
f 215 247 236
f 236 247 286
f 247 293 286
f 286 293 302
f 293 310 302
f 302 310 328
f 310 330 328
f 330 336 328
f 328 336 339
f 336 342 339
f 339 342 340
f 342 338 340
f 517 673 518
f 518 673 674
f 518 474 517
f 517 474 385
f 474 354 385
f 385 354 341
f 354 329 341
f 341 329 327
f 327 329 307
f 329 309 307
f 309 303 307
f 307 303 305
f 303 312 305
f 305 312 321
f 312 340 321
f 321 340 338
f 63 69 53
f 69 65 53
f 53 65 68
f 63 70 69
f 69 70 64
f 67 66 52
f 66 64 52
f 52 64 70
f 237 238 221
f 238 218 221
f 218 209 221
f 221 209 207
f 193 192 165
f 192 164 165
f 165 164 155
f 164 146 155
f 155 146 106
f 146 104 106
f 106 104 90
f 104 91 90
f 91 79 90
f 90 79 74
f 79 69 74
f 74 69 64
f 172 169 185
f 169 187 185
f 185 187 202
f 187 208 202
f 202 208 216
f 208 226 216
f 216 226 231
f 226 243 231
f 231 243 246
f 243 258 246
f 246 258 263
f 258 266 263
f 263 266 278
f 266 277 278
f 277 261 278
f 278 261 257
f 261 254 257
f 254 242 257
f 257 242 239
f 242 224 239
f 239 224 211
f 224 212 211
f 212 191 211
f 211 191 190
f 190 191 172
f 191 169 172
f 502 386 360
f 488 502 360
f 488 360 346
f 492 488 346
f 349 492 346
f 365 492 349
f 503 492 365
f 406 503 365
f 512 503 406
f 480 512 406
f 507 512 480
f 520 512 507
f 524 520 507
f 524 528 520
f 524 565 528
f 565 613 528
f 613 550 528
f 613 675 550
f 675 569 550
f 675 694 569
f 694 698 569
f 698 572 569
f 698 701 572
f 701 692 572
f 572 692 555
f 692 666 555
f 555 666 531
f 666 583 531
f 531 583 522
f 583 521 522
f 522 521 505
f 510 522 505
f 510 505 468
f 510 468 386
f 502 510 386
f 572 574 569
f 574 568 569
f 569 568 550
f 568 536 550
f 550 536 528
f 536 523 528
f 528 523 520
f 520 523 512
f 523 511 512
f 512 511 503
f 511 499 503
f 492 503 499
f 492 499 487
f 488 492 487
f 488 487 491
f 502 488 491
f 502 491 504
f 510 502 504
f 510 504 514
f 522 510 514
f 522 514 532
f 531 522 532
f 555 531 532
f 532 564 555
f 555 564 572
f 564 574 572
f 154 398 99
f 98 99 300
f 300 525 526
f 526 343 98
f 300 526 98
f 228 253 275
f 280 260 297
f 273 230 175
f 253 265 275
f 275 265 297
f 273 260 245
f 230 214 175
f 214 195 175
f 297 260 273
f 273 245 230
f 177 201 228
f 177 228 275
f 297 265 280
f 177 184 201
f 175 195 141
f 141 195 174
f 177 141 184
f 174 184 141
f 273 175 274
f 175 176 274
f 175 141 176
f 141 142 176
f 141 177 142
f 177 178 142
f 177 275 178
f 275 276 178
f 275 297 276
f 297 298 276
f 107 62 133
f 62 60 133
f 133 60 136
f 60 58 136
f 58 56 136
f 136 56 138
f 56 55 138
f 138 55 150
f 151 54 139
f 54 57 139
f 139 57 137
f 134 137 59
f 59 137 57
f 132 134 59
f 108 132 61
f 61 132 59
f 367 364 345
f 364 344 345
f 345 344 326
f 344 323 326
f 655 359 627
f 359 351 627
f 659 663 650
f 663 640 650
f 650 640 618
f 640 598 618
f 618 598 591
f 598 566 591
f 591 566 560
f 566 545 560
f 560 545 538
f 545 546 538
f 538 546 551
f 546 580 551
f 551 580 578
f 578 580 600
f 580 611 600
f 600 611 634
f 611 633 634
f 633 663 634
f 634 663 659
f 654 358 626
f 358 350 626
f 664 364 646
f 364 367 646
f 290 295 268
f 268 295 270
f 295 287 270
f 270 287 248
f 287 283 248
f 283 235 248
f 248 235 219
f 235 199 219
f 219 199 205
f 199 160 205
f 205 160 188
f 160 147 188
f 188 147 170
f 147 157 170
f 170 157 203
f 157 186 203
f 203 186 233
f 186 223 233
f 223 250 233
f 233 250 255
f 250 284 255
f 284 290 255
f 255 290 268
f 665 355 647
f 355 353 647
f 297 273 298
f 273 274 298
f 626 686 654
f 654 686 715
f 686 727 715
f 727 749 715
f 715 749 744
f 744 749 761
f 749 759 761
f 759 755 761
f 761 755 752
f 755 742 752
f 752 742 738
f 742 713 738
f 738 713 706
f 713 664 706
f 706 664 646
f 270 279 268
f 279 264 268
f 268 264 255
f 264 252 255
f 255 252 233
f 252 227 233
f 233 227 203
f 227 200 203
f 203 200 170
f 200 183 170
f 183 173 170
f 170 173 188
f 173 194 188
f 188 194 205
f 194 213 205
f 205 213 219
f 213 229 219
f 219 229 248
f 229 244 248
f 244 259 248
f 248 259 270
f 259 279 270
f 229 213 179
f 578 600 279
f 108 227 326
f 179 259 244
f 61 227 108
f 227 252 326
f 752 600 634
f 61 200 227
f 279 551 578
f 244 229 179
f 179 213 145
f 145 213 194
f 194 173 47
f 334 591 560
f 634 659 752
f 345 326 252
f 367 264 646
f 738 706 279
f 738 279 752
f 654 591 358
f 145 194 47
f 61 183 200
f 252 264 345
f 600 752 279
f 560 259 179
f 47 183 61
f 345 264 367
f 279 706 264
f 706 646 264
f 538 551 279
f 752 659 761
f 659 650 761
f 761 650 744
f 744 650 715
f 650 618 715
f 715 618 654
f 618 591 654
f 560 538 259
f 591 334 358
f 183 47 173
f 334 560 179
f 181 313 179
f 538 279 259
f 313 334 179
f 117 119 37
f 119 39 37
f 44 43 126
f 43 123 126
f 545 566 241
f 241 566 598
f 664 611 580
f 241 598 626
f 151 222 54
f 131 159 109
f 344 364 580
f 241 546 545
f 664 580 364
f 626 350 241
f 241 272 580
f 323 251 151
f 251 222 151
f 241 580 546
f 148 159 131
f 350 333 241
f 198 241 109
f 109 241 317
f 222 197 54
f 159 198 109
f 333 317 241
f 323 344 288
f 285 251 323
f 54 161 51
f 161 153 51
f 51 153 148
f 289 294 580
f 285 323 288
f 197 161 54
f 51 148 131
f 626 598 686
f 598 640 686
f 686 640 727
f 727 640 749
f 640 663 749
f 749 663 759
f 759 663 755
f 755 663 742
f 663 633 742
f 742 633 713
f 633 611 713
f 713 611 664
f 580 272 289
f 294 288 580
f 580 288 344
f 36 38 118
f 38 120 118
f 148 153 147
f 147 153 157
f 153 161 157
f 157 161 186
f 161 197 186
f 186 197 223
f 197 222 223
f 222 251 223
f 223 251 250
f 250 251 284
f 251 285 284
f 285 288 284
f 284 288 290
f 288 294 290
f 290 294 295
f 294 289 295
f 295 289 287
f 287 289 283
f 289 272 283
f 283 272 235
f 272 241 235
f 241 198 235
f 235 198 199
f 199 198 160
f 198 159 160
f 160 159 147
f 159 148 147
f 137 134 151
f 151 139 137
f 151 134 132
f 151 132 108
f 326 323 108
f 323 151 108
f 142 178 55
f 178 276 55
f 55 276 150
f 55 50 142
f 50 130 142
f 142 130 176
f 130 110 176
f 176 110 314
f 274 176 335
f 353 332 298
f 753 647 298
f 647 353 298
f 276 316 150
f 298 556 589
f 176 314 335
f 276 298 332
f 298 589 753
f 753 739 647
f 655 585 359
f 614 637 753
f 589 614 753
f 332 316 276
f 359 585 559
f 739 707 647
f 559 539 335
f 335 539 274
f 274 539 298
f 539 556 298
f 637 660 753
f 753 660 762
f 660 653 762
f 762 653 745
f 653 623 745
f 745 623 716
f 716 623 655
f 623 585 655
f 335 359 559
f 130 128 110
f 128 126 110
f 123 121 126
f 110 126 111
f 126 119 111
f 111 119 117
f 126 121 119
f 113 111 117
f 115 113 117
f 315 314 182
f 314 110 182
f 182 110 181
f 110 109 181
f 181 109 313
f 109 317 313
f 316 322 150
f 322 107 150
f 136 138 150
f 150 133 136
f 107 133 150
f 180 573 594
f 189 206 48
f 48 206 149
f 541 573 180
f 627 351 594
f 180 594 351
f 48 171 189
f 331 315 180
f 107 234 62
f 206 220 149
f 149 220 180
f 180 315 182
f 256 234 322
f 234 204 62
f 612 584 665
f 665 584 355
f 180 220 541
f 322 234 107
f 351 331 180
f 220 249 541
f 337 584 554
f 62 204 171
f 62 171 48
f 337 355 584
f 249 271 541
f 269 554 541
f 322 337 256
f 269 256 554
f 271 269 541
f 594 628 627
f 627 628 687
f 687 628 728
f 728 628 750
f 628 662 750
f 750 662 760
f 760 662 756
f 662 643 756
f 756 643 743
f 743 643 714
f 643 612 714
f 714 612 665
f 337 554 256
f 110 111 31
f 110 31 109
f 31 32 109
f 109 32 112
f 647 707 665
f 665 707 714
f 707 739 714
f 714 739 743
f 739 753 743
f 743 753 756
f 753 762 756
f 756 762 760
f 760 762 750
f 762 745 750
f 745 716 750
f 750 716 728
f 728 716 687
f 716 655 687
f 687 655 627
f 662 660 643
f 660 637 643
f 637 614 643
f 643 614 612
f 614 589 612
f 612 589 584
f 589 556 584
f 584 556 554
f 556 539 554
f 554 539 541
f 539 559 541
f 541 559 573
f 559 585 573
f 573 585 594
f 585 623 594
f 594 623 628
f 628 623 662
f 623 653 662
f 653 660 662
f 145 47 149
f 47 48 149
f 271 280 269
f 280 265 269
f 269 265 256
f 265 253 256
f 256 253 234
f 253 228 234
f 234 228 204
f 228 201 204
f 204 201 171
f 201 184 171
f 184 174 171
f 171 174 189
f 174 195 189
f 189 195 206
f 195 214 206
f 206 214 220
f 214 230 220
f 220 230 249
f 230 245 249
f 245 260 249
f 249 260 271
f 260 280 271
f 180 179 149
f 179 145 149
f 181 179 182
f 179 180 182
f 42 45 124
f 45 125 124
f 124 125 120
f 120 125 118
f 109 127 129
f 109 129 131
f 125 127 109
f 125 109 118
f 109 112 118
f 124 120 122
f 114 116 118
f 118 112 114
f 359 335 351
f 351 335 331
f 331 335 315
f 335 314 315
f 313 317 334
f 317 333 334
f 333 350 334
f 334 350 358
f 43 41 123
f 123 41 121
f 41 39 121
f 121 39 119
f 44 126 46
f 126 128 46
f 128 130 46
f 46 130 50
f 125 45 127
f 45 49 127
f 127 49 129
f 49 51 129
f 129 51 131
f 38 40 120
f 120 40 122
f 40 42 122
f 122 42 124
f 112 32 114
f 32 34 114
f 114 34 116
f 34 36 116
f 116 36 118
f 31 111 33
f 111 113 33
f 113 115 33
f 33 115 35
f 115 117 35
f 35 117 37
f 316 332 322
f 322 332 337
f 332 353 337
f 337 353 355
f 59 57 25
f 59 25 27
f 45 42 12
f 45 12 15
f 50 55 23
f 50 23 20
f 46 50 20
f 46 20 16
f 33 35 5
f 33 5 3
f 36 34 4
f 36 4 6
f 47 61 29
f 47 29 17
f 48 47 17
f 48 17 18
f 61 59 27
f 61 27 29
f 31 33 3
f 31 3 1
f 37 39 9
f 37 9 7
f 38 36 6
f 38 6 8
f 34 32 2
f 34 2 4
f 43 44 14
f 43 14 13
f 49 45 15
f 49 15 19
f 51 49 19
f 51 19 21
f 57 54 22
f 57 22 25
f 44 46 16
f 44 16 14
f 32 31 1
f 32 1 2
f 58 60 28
f 58 28 26
f 54 51 21
f 54 21 22
f 62 48 18
f 62 18 30
f 55 56 24
f 55 24 23
f 40 38 8
f 40 8 10
f 56 58 26
f 56 26 24
f 60 62 30
f 60 30 28
f 42 40 10
f 42 10 12
f 35 37 7
f 35 7 5
f 9 18 7
f 18 17 7
f 18 14 16
f 9 14 18
f 2 1 7
f 2 7 6
f 7 17 6
f 6 17 8
f 17 15 8
f 16 20 18
f 21 17 22
f 19 15 17
f 1 3 7
f 7 3 5
f 18 20 30
f 20 23 30
f 21 19 17
f 13 9 11
f 28 30 23
f 6 4 2
f 17 29 22
f 22 29 27
f 14 9 13
f 15 12 8
f 12 10 8
f 26 28 23
f 23 24 26
f 25 22 27
f 39 41 11
f 39 11 9
f 41 43 13
f 41 13 11
f 498 501 494
f 879 873 870
f 909 908 915
f 493 494 495
f 658 661 656
f 859 854 849
f 581 586 601
f 906 905 901
f 656 652 644
f 768 785 765
f 858 863 847
f 842 847 832
f 778 783 788
f 788 851 839
f 788 839 828
f 764 778 788
f 733 747 764
f 690 712 733
f 648 671 690
f 606 619 648
f 604 596 606
f 814 823 798
f 813 814 798
f 798 604 606
f 606 648 690
f 690 733 764
f 764 788 828
f 819 813 798
f 764 828 819
f 606 690 764
f 819 798 606
f 819 606 764
f 826 823 816
f 629 624 587
f 644 642 625
f 846 851 855
f 863 858 890
f 802 801 798
f 901 905 903
f 804 803 807
f 837 839 846
f 870 865 859
f 558 619 606
f 562 567 581
f 894 895 892
f 535 595 537
f 831 821 818
f 881 885 888
f 878 882 875
f 767 779 782
f 806 805 802
f 830 838 841
f 887 886 882
f 540 542 548
f 543 595 535
f 883 880 886
f 902 900 904
f 615 616 636
f 897 900 902
f 897 902 896
f 506 508 501
f 616 615 601
f 629 667 624
f 856 862 874
f 901 903 899
f 874 889 891
f 891 893 896
f 844 836 850
f 682 630 672
f 667 629 677
f 552 562 548
f 849 843 835
f 563 561 571
f 537 608 557
f 828 829 817
f 709 708 695
f 705 746 720
f 764 754 778
f 835 833 831
f 820 827 830
f 684 677 695
f 898 895 894
f 880 876 868
f 894 892 890
f 811 815 820
f 690 635 678
f 864 869 872
f 676 723 700
f 834 826 836
f 754 764 737
f 891 889 893
f 816 814 810
f 593 679 649
f 818 812 811
f 544 596 604
f 868 866 860
f 867 871 875
f 888 884 879
f 636 641 658
f 806 809 805
f 549 547 540
f 712 702 733
f 860 853 850
f 676 689 723
f 625 621 607
f 588 577 571
f 672 599 631
f 631 575 608
f 841 848 852
f 695 708 684
f 547 549 561
f 690 678 712
f 810 813 817
f 767 782 787
f 570 649 622
f 872 877 881
f 696 669 682
f 671 597 635
f 852 857 864
f 635 690 671
f 506 501 498
f 582 530 529
f 798 801 796
f 593 570 632
f 751 770 779
f 855 861 867
f 570 553 632
f 700 651 676
f 587 582 629
f 620 679 593
f 913 912 911
f 777 788 769
f 705 741 689
f 757 784 765
f 890 892 863
f 905 906 914
f 905 914 915
f 774 773 794
f 606 596 534
f 808 804 807
f 849 854 843
f 625 642 621
f 851 788 909
f 909 914 906
f 906 901 898
f 898 894 890
f 890 858 842
f 842 822 806
f 806 802 798
f 798 823 834
f 798 834 844
f 842 806 798
f 898 890 842
f 909 906 898
f 861 851 909
f 871 861 909
f 909 898 842
f 842 798 844
f 842 844 853
f 878 871 909
f 887 878 909
f 842 853 866
f 842 866 876
f 883 887 909
f 909 842 876
f 909 876 883
f 748 775 766
f 748 766 736
f 553 533 610
f 881 877 885
f 874 862 889
f 506 513 508
f 751 735 758
f 751 758 770
f 800 797 799
f 797 795 799
f 824 840 848
f 824 848 838
f 804 808 824
f 797 800 804
f 595 603 797
f 631 608 595
f 682 672 631
f 725 696 682
f 758 740 725
f 779 770 758
f 787 782 779
f 843 854 787
f 833 843 787
f 787 779 758
f 758 725 682
f 682 631 595
f 595 797 804
f 804 824 838
f 804 838 827
f 682 595 804
f 787 758 682
f 821 833 787
f 812 821 787
f 787 682 804
f 804 827 815
f 812 787 804
f 815 812 804
f 857 848 856
f 856 874 891
f 891 896 902
f 902 907 913
f 913 910 787
f 787 854 865
f 787 865 873
f 902 913 787
f 856 891 902
f 869 857 856
f 877 869 856
f 902 787 873
f 902 873 884
f 877 856 902
f 902 884 885
f 902 885 877
f 768 786 792
f 768 792 772
f 768 784 786
f 848 840 856
f 553 570 622
f 513 515 508
f 767 751 779
f 888 885 884
f 734 746 705
f 856 845 862
f 587 530 582
f 771 748 736
f 806 822 809
f 852 848 857
f 792 793 774
f 781 757 765
f 781 765 785
f 777 724 722
f 908 909 788
f 789 908 788
f 789 788 777
f 773 789 777
f 787 910 911
f 787 911 791
f 776 787 791
f 773 777 722
f 776 791 773
f 722 776 773
f 785 768 790
f 620 593 670
f 818 821 812
f 748 771 780
f 800 799 803
f 860 866 853
f 773 793 789
f 910 913 911
f 672 630 599
f 822 842 832
f 656 661 652
f 677 684 667
f 516 508 515
f 834 823 826
f 836 844 834
f 683 704 651
f 720 736 766
f 720 766 741
f 831 833 821
f 588 590 577
f 718 734 689
f 856 840 845
f 689 741 723
f 530 516 515
f 530 515 529
f 683 620 670
f 870 873 865
f 843 833 835
f 913 907 912
f 641 708 724
f 641 724 657
f 899 895 898
f 726 747 733
f 726 733 702
f 817 813 819
f 864 857 869
f 879 884 873
f 825 824 808
f 825 808 807
f 818 811 795
f 795 609 622
f 795 622 649
f 831 818 795
f 831 795 649
f 831 649 679
f 835 831 679
f 835 679 700
f 849 835 700
f 849 700 723
f 859 849 723
f 859 723 741
f 870 859 741
f 870 741 766
f 879 870 766
f 879 766 775
f 879 775 781
f 879 781 785
f 879 785 790
f 794 791 911
f 879 790 794
f 888 879 794
f 794 911 912
f 912 904 900
f 900 897 893
f 893 889 862
f 862 845 825
f 825 807 841
f 825 841 852
f 893 862 825
f 912 900 893
f 888 794 912
f 881 888 912
f 912 893 825
f 825 852 864
f 872 881 912
f 825 864 872
f 912 825 872
f 693 669 696
f 693 696 725
f 830 841 807
f 807 803 799
f 799 795 811
f 820 830 807
f 799 811 820
f 807 799 820
f 708 709 722
f 708 722 724
f 644 652 642
f 725 740 717
f 725 717 693
f 769 788 783
f 501 508 516
f 516 530 587
f 587 624 667
f 667 684 708
f 708 641 616
f 708 616 602
f 587 667 708
f 501 516 587
f 495 494 501
f 534 544 495
f 558 534 495
f 495 501 587
f 587 708 602
f 587 602 586
f 579 558 495
f 597 579 495
f 495 587 586
f 495 586 567
f 635 597 495
f 678 635 495
f 495 567 552
f 495 552 542
f 702 678 495
f 726 702 495
f 495 542 547
f 495 547 563
f 737 726 495
f 737 495 563
f 737 563 577
f 754 737 577
f 754 577 590
f 724 777 769
f 754 590 605
f 724 769 754
f 661 657 724
f 652 661 724
f 754 605 621
f 642 652 724
f 754 621 642
f 642 724 754
f 867 861 871
f 804 800 803
f 590 588 607
f 590 607 605
f 882 908 789
f 789 793 846
f 789 846 855
f 875 882 789
f 789 855 867
f 789 867 875
f 784 768 765
f 830 827 838
f 776 767 787
f 842 858 847
f 601 602 616
f 907 904 912
f 581 567 586
f 841 838 848
f 880 883 876
f 914 909 915
f 498 493 543
f 498 543 535
f 513 506 498
f 529 515 513
f 629 582 529
f 695 677 629
f 722 709 695
f 767 776 722
f 625 735 751
f 751 767 722
f 722 695 629
f 629 529 513
f 513 498 535
f 513 535 537
f 722 629 513
f 625 751 722
f 644 625 722
f 513 537 557
f 513 557 575
f 656 644 722
f 658 656 722
f 513 575 599
f 630 669 607
f 513 599 630
f 636 658 722
f 615 636 722
f 630 607 588
f 630 588 571
f 615 722 513
f 601 615 513
f 630 571 561
f 630 561 549
f 581 601 513
f 562 581 513
f 513 630 549
f 513 549 540
f 548 562 513
f 540 548 513
f 825 845 840
f 825 840 824
f 534 558 606
f 544 534 596
f 632 553 610
f 778 754 769
f 778 769 783
f 757 780 784
f 907 902 904
f 552 567 562
f 846 839 851
f 558 579 619
f 850 853 844
f 794 773 791
f 816 823 814
f 493 498 494
f 570 593 649
f 837 829 828
f 837 828 839
f 814 813 810
f 822 832 809
f 648 619 579
f 648 579 597
f 717 735 625
f 625 607 669
f 693 717 625
f 693 625 669
f 893 897 896
f 872 869 877
f 608 575 557
f 802 805 801
f 705 689 734
f 636 616 641
f 781 775 748
f 781 748 757
f 712 678 702
f 561 563 547
f 868 876 866
f 571 577 563
f 855 851 861
f 543 603 595
f 820 815 827
f 631 599 575
f 898 901 899
f 735 717 740
f 735 740 758
f 882 878 887
f 737 764 747
f 737 747 726
f 875 871 878
f 763 736 720
f 763 720 746
f 682 669 630
f 607 621 605
f 671 648 597
f 741 705 720
f 887 883 886
f 553 622 609
f 553 609 533
f 543 493 495
f 795 797 603
f 609 795 603
f 609 603 543
f 533 609 543
f 604 798 796
f 604 796 610
f 544 604 610
f 533 543 495
f 544 610 533
f 495 544 533
f 736 763 771
f 601 586 602
f 792 774 772
f 689 676 718
f 793 773 774
f 718 676 704
f 658 641 657
f 542 552 548
f 658 657 661
f 620 651 700
f 620 700 679
f 537 595 608
f 757 748 780
f 811 812 815
f 540 547 542
f 774 794 790
f 774 790 772
f 632 610 796
f 796 801 805
f 805 809 832
f 832 847 863
f 863 892 895
f 895 899 903
f 903 905 915
f 915 908 882
f 915 882 886
f 895 903 915
f 832 863 895
f 796 805 832
f 670 632 796
f 683 670 796
f 796 832 895
f 895 915 886
f 895 886 880
f 704 683 796
f 718 704 796
f 895 880 868
f 895 868 860
f 734 718 796
f 746 734 796
f 895 860 850
f 895 850 836
f 763 746 796
f 771 763 796
f 796 895 836
f 796 836 826
f 780 771 796
f 784 780 796
f 796 826 816
f 796 816 810
f 786 784 796
f 846 793 792
f 792 786 796
f 796 810 817
f 796 817 829
f 837 846 792
f 792 796 829
f 792 829 837
f 632 670 593
f 819 828 817
f 859 865 854
f 651 620 683
f 676 651 704
f 768 772 790
