# extracted from playroom GLB, metres
v -0.023999 -0.029536 0.015200
v -0.023991 -0.029424 0.020200
v -0.023985 -0.029438 -0.015800
v -0.023964 -0.029114 -0.010800
v -0.023957 -0.030359 -0.010800
v -0.023951 -0.030386 -0.015800
v -0.023938 -0.030458 0.020200
v -0.023915 -0.030580 0.015200
v -0.023859 -0.028521 -0.015800
v -0.023820 -0.028392 0.020200
v -0.023806 -0.028330 0.015200
v -0.023729 -0.028094 -0.010800
v -0.023439 -0.027413 0.015200
v -0.023366 -0.027250 -0.015800
v -0.023339 -0.027197 0.020200
v -0.023307 -0.027160 -0.010800
v -0.022951 -0.026638 0.015200
v -0.022566 -0.026199 0.020200
v -0.022548 -0.026169 -0.010800
v -0.022376 -0.025991 -0.015800
v -0.022323 -0.025969 0.015200
v -0.021825 -0.025572 0.020200
v -0.021742 -0.025522 -0.010800
v -0.021336 -0.025261 0.015200
v -0.021246 -0.025229 -0.015800
v -0.020833 -0.025042 0.020200
v -0.020832 -0.025040 -0.010800
v -0.020723 -0.029683 -0.010800
v -0.020719 -0.029825 0.020200
v -0.020718 -0.029659 0.015200
v -0.020706 -0.029490 -0.015800
v -0.020670 -0.030147 -0.015800
v -0.020657 -0.029244 0.020200
v -0.020655 -0.030165 0.015200
v -0.020620 -0.029130 -0.010800
v -0.020586 -0.029014 0.015200
v -0.020584 -0.030388 -0.010800
v -0.020575 -0.030388 0.020200
v -0.020566 -0.028988 -0.015800
v -0.020430 -0.028738 0.020200
v -0.020427 -0.030667 0.015200
v -0.020393 -0.024896 -0.015800
v -0.020388 -0.030720 -0.015800
v -0.020372 -0.028658 -0.010800
v -0.020248 -0.030895 0.020200
v -0.020193 -0.030945 -0.010800
v -0.020189 -0.028442 -0.015800
v -0.020182 -0.028444 0.015200
v -0.019940 -0.031156 0.015200
v -0.019928 -0.028235 0.020200
v -0.019919 -0.031167 -0.015800
v -0.019889 -0.028214 -0.010800
v -0.019885 -0.024766 0.015200
v -0.019814 -0.024763 -0.010800
v -0.019752 -0.031253 0.020200
v -0.019702 -0.028122 0.015200
v -0.019697 -0.031282 -0.010800
v -0.019690 -0.024738 0.020200
v -0.019492 -0.028033 -0.015800
v -0.019378 -0.024702 -0.015800
v -0.019286 -0.031408 -0.015800
v -0.019286 -0.031408 0.015200
v -0.019268 -0.027990 0.020200
v -0.019265 -0.027989 -0.010800
v -0.019103 -0.031437 0.020200
v -0.019037 -0.027960 0.015200
v -0.018956 -0.031443 -0.010800
v -0.018877 -0.027975 -0.015800
v -0.018796 -0.024699 0.015200
v -0.018750 -0.031413 0.015200
v -0.018719 -0.024695 -0.010800
v -0.018636 -0.028001 0.020200
v -0.018524 -0.031380 -0.015800
v -0.018511 -0.024712 0.020200
v -0.018503 -0.028024 -0.010800
v -0.018407 -0.024730 -0.015800
v -0.018342 -0.031315 0.020200
v -0.018309 -0.028099 -0.015800
v -0.018257 -0.031273 0.015200
v -0.018255 -0.028121 0.015200
v -0.018251 -0.031269 -0.010800
v -0.018036 -0.028251 0.020200
v -0.017885 -0.031036 -0.015800
v -0.017861 -0.024820 0.015200
v -0.017792 -0.030953 -0.010800
v -0.017786 -0.028442 -0.010800
v -0.017736 -0.030904 0.015200
v -0.017728 -0.030898 0.020200
v -0.017709 -0.028525 -0.015800
v -0.017683 -0.028558 0.015200
v -0.017519 -0.024909 -0.010800
v -0.017514 -0.024913 -0.015800
v -0.017502 -0.028783 0.020200
v -0.017468 -0.024929 0.020200
v -0.017441 -0.030499 -0.015800
v -0.017416 -0.028974 -0.010800
v -0.017403 -0.030394 0.020200
v -0.017392 -0.030396 -0.010800
v -0.017391 -0.030373 0.015200
v -0.017369 -0.029081 0.015200
v -0.017333 -0.029167 -0.015800
v -0.017280 -0.029424 0.020200
v -0.017270 -0.029920 0.020200
v -0.017259 -0.029825 -0.015800
v -0.017249 -0.029605 -0.010800
v -0.017248 -0.029732 0.015200
v -0.016683 -0.025242 0.015200
v -0.016414 -0.025397 -0.015800
v -0.016287 -0.025469 -0.010800
v -0.016263 -0.025484 0.020200
v -0.015689 -0.025931 0.015200
v -0.015458 -0.026146 -0.015800
v -0.015212 -0.026404 -0.010800
v -0.015199 -0.026420 0.020200
v -0.014973 -0.026703 0.015200
v -0.014878 -0.026844 -0.015800
v -0.014578 -0.027326 -0.010800
v -0.014423 -0.027608 0.020200
v -0.014361 -0.027762 -0.015800
v -0.014359 -0.027766 0.015200
v -0.014234 -0.028134 -0.010800
v -0.012954 -0.071809 -0.010800
v -0.012951 -0.072075 0.015200
v -0.012867 -0.070720 0.015200
v -0.012855 -0.072955 -0.010800
v -0.012827 -0.070496 -0.010800
v -0.012806 -0.073171 0.015200
v -0.012690 -0.073580 0.020200
v -0.012683 -0.073598 -0.015800
v -0.012586 -0.069700 0.015200
v -0.012367 -0.069162 -0.010800
v -0.012213 -0.068879 0.015200
v -0.012181 -0.074694 -0.015800
v -0.012181 -0.074694 0.020200
v -0.011784 -0.068235 -0.010800
v -0.011630 -0.068047 0.015200
v -0.011555 -0.075590 -0.015800
v -0.011401 -0.075779 0.020200
v -0.011210 -0.079280 -0.005300
v -0.011210 -0.079280 0.009700
v -0.011159 -0.067576 -0.010800
v -0.011056 -0.079039 0.002201
v -0.010978 -0.080112 0.002204
v -0.010966 -0.077965 0.002199
v -0.010936 -0.067388 0.015200
v -0.010833 -0.076319 -0.015800
v -0.010716 -0.080454 0.009700
v -0.010689 -0.076950 0.002200
v -0.010624 -0.080634 -0.005300
v -0.010363 -0.067007 -0.010800
v -0.010359 -0.076224 0.002200
v -0.010311 -0.076720 0.020200
v -0.010180 -0.066919 0.015200
v -0.010052 -0.091349 -0.005800
v -0.010052 -0.091349 0.015200
v -0.010017 -0.091449 -0.010800
v -0.010017 -0.091449 0.010200
v -0.009979 -0.076913 -0.015800
v -0.009937 -0.075559 0.002198
v -0.009836 -0.089441 -0.010800
v -0.009836 -0.089441 0.010200
v -0.009724 -0.081809 0.009700
v -0.009666 -0.088811 -0.005800
v -0.009666 -0.088811 0.015200
v -0.009482 -0.082041 -0.005300
v -0.009351 -0.094053 -0.010800
v -0.009351 -0.094053 0.010200
v -0.009308 -0.074876 0.002199
v -0.009288 -0.077233 0.020200
v -0.009281 -0.066589 0.015200
v -0.009277 -0.094177 -0.005800
v -0.009277 -0.094177 0.015200
v -0.009047 -0.087388 -0.010800
v -0.009047 -0.087388 0.010200
v -0.008967 -0.066508 -0.010800
v -0.008941 -0.077357 -0.015800
v -0.008679 -0.086846 -0.005800
v -0.008679 -0.086846 0.015200
v -0.008615 -0.082684 0.009700
v -0.008506 -0.074292 0.002201
v -0.008398 -0.082806 -0.005300
v -0.008307 -0.066467 0.015200
v -0.008274 -0.077504 0.020200
v -0.008112 0.000332 0.009200
v -0.008092 -0.000896 -0.004800
v -0.007973 0.001502 -0.004800
v -0.007896 -0.001917 0.009200
v -0.007819 -0.096112 -0.010800
v -0.007819 -0.096112 0.010200
v -0.007710 -0.083116 0.009700
v -0.007651 -0.077553 -0.015800
v -0.007632 -0.092893 0.009700
v -0.007627 -0.066509 -0.010800
v -0.007623 -0.092917 -0.005300
v -0.007592 0.002964 0.009200
v -0.007550 -0.002945 -0.004800
v -0.007547 -0.073898 0.002199
v -0.007459 -0.066542 0.015200
v -0.007368 -0.096561 -0.005800
v -0.007368 -0.096561 0.015200
v -0.007367 -0.083234 -0.005300
v -0.007202 -0.085350 -0.010800
v -0.007202 -0.085350 0.010200
v -0.007158 -0.077517 0.020200
v -0.007152 0.003908 -0.004800
v -0.007090 -0.003951 0.009200
v -0.006901 -0.094139 -0.005300
v -0.006872 -0.094183 0.009700
v -0.006763 -0.085049 -0.005800
v -0.006763 -0.085049 0.015200
v -0.006743 -0.073748 0.002200
v -0.006616 -0.066768 0.015200
v -0.006601 -0.004760 -0.004800
v -0.006579 -0.083396 0.009700
v -0.006554 -0.000787 0.004200
v -0.006529 -0.066799 -0.010800
v -0.006523 0.001014 0.009200
v -0.006508 0.000992 0.004200
v -0.006504 -0.001109 0.009200
v -0.006474 -0.077384 -0.015800
v -0.006098 -0.094921 -0.005300
v -0.006083 0.002541 0.004200
v -0.006068 -0.083418 -0.005300
v -0.006027 -0.002665 0.004200
v -0.005970 0.005530 0.009200
v -0.005955 -0.077215 0.020200
v -0.005945 -0.073751 0.002200
v -0.005908 0.002926 0.009200
v -0.005895 -0.097410 -0.010800
v -0.005895 -0.097410 0.010200
v -0.005879 -0.005602 0.009200
v -0.005846 -0.095115 0.009700
v -0.005729 -0.067207 0.015200
v -0.005687 -0.077079 -0.015800
v -0.005667 -0.003430 0.009200
v -0.005521 0.005950 -0.004800
v -0.005297 -0.067482 -0.010800
v -0.005279 -0.083333 0.009700
v -0.005225 -0.095486 -0.005300
v -0.005146 -0.073894 0.002199
v -0.004973 0.004351 0.004200
v -0.004952 -0.006429 -0.004800
v -0.004936 -0.006420 0.009200
v -0.004922 -0.076598 -0.015800
v -0.004908 -0.076587 0.020200
v -0.004852 -0.067865 0.015200
v -0.004838 -0.083222 -0.005300
v -0.004835 0.004486 0.009200
v -0.004795 -0.095673 0.009700
v -0.004776 -0.004590 0.004200
v -0.004547 -0.084112 -0.010800
v -0.004547 -0.084112 0.010200
v -0.004546 -0.090827 -0.010800
v -0.004522 -0.091246 0.010200
v -0.004495 -0.090758 0.015200
v -0.004494 -0.090744 -0.005800
v -0.004488 -0.090903 0.009700
v -0.004467 -0.091348 -0.005300
v -0.004445 -0.091394 0.009700
v -0.004440 -0.090583 -0.005300
v -0.004425 -0.097904 -0.005800
v -0.004425 -0.097904 0.015200
v -0.004420 -0.091513 0.015200
v -0.004401 -0.090479 0.009700
v -0.004365 -0.074184 0.002199
v -0.004358 -0.091703 -0.005800
v -0.004313 -0.068448 -0.010800
v -0.004272 -0.075969 0.020200
v -0.004266 -0.084072 -0.005800
v -0.004266 -0.084072 0.015200
v -0.004260 -0.005021 0.009200
v -0.004198 -0.090105 -0.005300
v -0.004190 -0.090021 0.010200
v -0.004144 -0.090031 0.009700
v -0.004138 -0.091986 0.009700
v -0.004124 -0.092039 -0.010800
v -0.004109 0.006991 -0.004800
v -0.004107 0.007000 0.009200
v -0.004101 -0.089945 0.015200
v -0.004088 -0.092041 -0.005300
v -0.004048 -0.082907 0.009700
v -0.004013 -0.089843 -0.005800
v -0.003994 -0.089858 -0.010800
v -0.003949 -0.068924 0.015200
v -0.003923 -0.075556 -0.015800
v -0.003921 -0.082821 -0.005300
v -0.003900 -0.095932 -0.005300
v -0.003853 -0.092277 0.010200
v -0.003841 -0.097968 -0.010800
v -0.003841 -0.097968 0.010200
v -0.003817 -0.089736 -0.005300
v -0.003769 -0.095946 0.009700
v -0.003755 -0.092359 0.015200
v -0.003690 -0.069348 -0.010800
v -0.003689 -0.089661 0.009700
v -0.003672 -0.074571 0.002200
v -0.003666 -0.092362 -0.005800
v -0.003663 -0.075124 0.020200
v -0.003598 0.005512 0.009200
v -0.003576 -0.092391 0.009700
v -0.003575 -0.092386 -0.005300
v -0.003396 -0.089542 0.015200
v -0.003327 0.005693 0.004200
v -0.003303 -0.089514 -0.010800
v -0.003303 -0.089514 0.010200
v -0.003247 -0.070283 0.015200
v -0.003196 -0.070443 -0.010800
v -0.003169 -0.073958 -0.015800
v -0.003144 -0.089492 -0.005300
v -0.003109 -0.073725 0.020200
v -0.003087 -0.089493 0.009700
v -0.003062 -0.070946 -0.015800
v -0.003062 -0.070946 0.020200
v -0.003046 -0.092504 0.009700
v -0.003031 -0.089478 -0.005800
v -0.003028 -0.092511 -0.005300
v -0.002992 -0.092553 -0.010800
v -0.002986 -0.082115 -0.005300
v -0.002941 -0.082064 0.009700
v -0.002931 -0.072139 0.020200
v -0.002927 -0.072239 -0.015800
v -0.002926 -0.092513 0.010200
v -0.002798 -0.075280 0.002201
v -0.002719 -0.006022 0.009200
v -0.002640 -0.092501 -0.005800
v -0.002593 -0.089548 0.009700
v -0.002570 -0.089531 0.015200
v -0.002536 -0.089563 -0.005300
v -0.002495 -0.095995 0.009700
v -0.002488 -0.092446 0.015200
v -0.002484 -0.092426 0.009700
v -0.002467 -0.089572 0.010200
v -0.002389 -0.006180 0.004200
v -0.002360 -0.095981 -0.005300
v -0.002316 -0.092361 -0.005300
v -0.002274 -0.089633 -0.010800
v -0.002238 -0.081156 0.009700
v -0.002222 -0.089694 -0.005800
v -0.002178 -0.089728 0.009700
v -0.002162 0.006233 0.009200
v -0.002161 -0.000222 -0.004800
v -0.002154 -0.081027 -0.005300
v -0.002152 -0.092266 0.010200
v -0.002144 -0.000347 0.004200
v -0.002097 -0.089784 -0.005300
v -0.002090 -0.076146 0.002200
v -0.002052 0.000681 0.004200
v -0.002014 0.000781 -0.004800
v -0.001999 -0.092135 0.009700
v -0.001956 -0.092108 -0.010800
v -0.001903 0.006302 0.004200
v -0.001868 -0.001074 -0.004800
v -0.001838 -0.090030 0.009700
v -0.001800 -0.091928 -0.005300
v -0.001778 -0.090105 -0.005300
v -0.001768 -0.091897 -0.005800
v -0.001748 -0.091862 0.015200
v -0.001719 -0.080049 0.009700
v -0.001709 -0.079994 -0.005300
v -0.001706 -0.090167 0.015200
v -0.001702 -0.001341 0.004200
v -0.001691 -0.090194 0.010200
v -0.001660 -0.076877 0.002201
v -0.001658 -0.091715 0.009700
v -0.001651 -0.090289 -0.005800
v -0.001585 0.001473 0.004200
v -0.001564 -0.090507 -0.005300
v -0.001562 -0.091482 -0.005300
v -0.001550 -0.090517 0.009700
v -0.001543 -0.090523 -0.010800
v -0.001538 -0.091413 -0.010800
v -0.001515 -0.076873 0.009700
v -0.001512 -0.076889 -0.005300
v -0.001497 -0.091382 0.010200
v -0.001491 -0.091173 0.009700
v -0.001482 -0.091110 -0.005800
v -0.001482 -0.091110 0.015200
v -0.001479 -0.091006 -0.005300
v -0.001472 -0.079005 -0.005300
v -0.001447 0.001621 -0.004800
v -0.001409 -0.077973 -0.005300
v -0.001404 -0.078474 0.009700
v -0.001311 -0.077682 0.002203
v -0.001193 -0.001831 -0.004800
v -0.001070 -0.001872 0.004200
v -0.000990 -0.095604 0.009700
v -0.000937 -0.095575 -0.005300
v -0.000848 0.001989 0.004200
v -0.000838 -0.006538 0.009200
v -0.000780 0.017724 -0.004800
v -0.000780 0.017724 0.009197
v -0.000380 0.006584 0.004200
v -0.000257 0.002175 -0.004800
v -0.000123 -0.002182 0.004200
v -0.000073 -0.006596 0.004200
v -0.000002 0.002164 0.004200
v 0.000100 0.006618 0.009200
v 0.000137 -0.034193 -0.004800
v 0.000142 -0.034198 0.009200
v 0.000159 -0.094899 0.009700
v 0.000180 -0.094886 -0.005300
v 0.000189 -0.002184 -0.004800
v 0.000878 -0.094176 -0.005300
v 0.000880 0.001982 0.004200
v 0.000961 0.001947 -0.004800
v 0.000993 -0.001928 0.004200
v 0.001056 -0.006521 0.009200
v 0.001146 -0.093856 0.009700
v 0.001223 0.006473 0.004200
v 0.001410 -0.093404 -0.005300
v 0.001411 -0.006432 0.004200
v 0.001429 -0.001650 -0.004800
v 0.001553 0.001504 0.004200
v 0.001664 -0.001385 0.004200
v 0.001715 -0.092715 0.009700
v 0.001818 -0.011647 -0.004798
v 0.001838 0.001183 -0.004800
v 0.001919 -0.092072 -0.005300
v 0.001919 -0.012003 -0.002615
v 0.001966 0.006284 0.009200
v 0.001978 -0.090310 0.009700
v 0.001994 -0.091589 0.009700
v 0.002004 -0.090456 -0.005300
v 0.002044 0.000749 0.004200
v 0.002053 -0.000713 -0.004800
v 0.002094 -0.012630 -0.001032
v 0.002111 -0.011544 -0.003687
v 0.002141 -0.000448 0.004200
v 0.002158 0.000182 -0.004800
v 0.002244 -0.012214 -0.001504
v 0.002313 -0.011771 -0.002403
v 0.002323 -0.011285 -0.004800
v 0.002373 -0.012799 -0.000388
v 0.002378 -0.011418 -0.003519
v 0.002477 -0.013969 0.001014
v 0.002649 0.006036 0.004200
v 0.002660 -0.012519 -0.000477
v 0.002689 -0.011225 -0.003899
v 0.002699 -0.011572 -0.002427
v 0.002716 -0.013853 0.001104
v 0.002716 -0.012038 -0.001267
v 0.002738 -0.038672 -0.004800
v 0.002760 -0.013299 0.000602
v 0.002776 -0.014999 -0.004798
v 0.002863 -0.015314 -0.003260
v 0.002899 -0.011096 -0.004800
v 0.002911 -0.005918 0.009200
v 0.002933 -0.005917 0.004200
v 0.003059 -0.015978 -0.001984
v 0.003068 -0.015998 0.002695
v 0.003068 -0.014760 0.002057
v 0.003118 -0.012576 -0.000116
v 0.003135 -0.011868 -0.001403
v 0.003142 -0.015370 -0.003331
v 0.003144 -0.015150 -0.004200
v 0.003146 -0.013128 0.000628
v 0.003165 -0.011429 -0.002586
v 0.003170 -0.011131 -0.004054
v 0.003263 -0.013904 0.001487
v 0.003273 -0.016748 -0.001042
v 0.003288 -0.015640 -0.002719
v 0.003392 -0.017169 0.003277
v 0.003432 -0.011282 -0.003235
v 0.003437 0.005638 0.009200
v 0.003452 -0.015087 -0.004800
v 0.003481 -0.012431 -0.000271
v 0.003504 -0.015307 0.002606
v 0.003537 -0.013146 0.000752
v 0.003547 -0.016102 -0.001949
v 0.003550 -0.016569 -0.001367
v 0.003551 -0.016298 0.003107
v 0.003562 -0.015137 -0.004181
v 0.003576 -0.017123 -0.000804
v 0.003576 -0.011917 -0.001274
v 0.003617 -0.015399 -0.003270
v 0.003628 -0.011124 -0.004800
v 0.003633 -0.018004 -0.000126
v 0.003706 -0.018216 0.003660
v 0.003710 -0.011289 -0.003402
v 0.003778 -0.014890 0.002427
v 0.003802 -0.017045 0.003478
v 0.003840 -0.011767 -0.001769
v 0.003841 -0.012889 0.000392
v 0.003856 -0.013998 0.001699
v 0.003866 -0.015624 -0.002695
v 0.003908 -0.015070 -0.004090
v 0.003973 -0.017864 -0.000359
v 0.003990 -0.019236 0.000316
v 0.003998 -0.015848 -0.002268
v 0.004015 -0.015296 -0.003269
v 0.004027 -0.012412 -0.000460
v 0.004031 -0.016213 -0.001782
v 0.004034 -0.017081 -0.000927
v 0.004040 -0.016571 -0.001389
v 0.004043 -0.014652 0.002260
v 0.004063 -0.016328 0.003287
v 0.004070 -0.013623 0.001280
v 0.004133 -0.019761 0.003910
v 0.004143 -0.018395 -0.000108
v 0.004184 -0.018938 0.003952
v 0.004188 -0.017848 0.003809
v 0.004198 -0.019968 0.000443
v 0.004232 -0.014898 -0.004194
v 0.004249 -0.014812 -0.004800
v 0.004259 -0.013211 0.000695
v 0.004330 -0.015525 -0.002529
v 0.004343 -0.015975 0.003137
v 0.004385 -0.017396 -0.000676
v 0.004398 -0.015022 -0.003442
v 0.004402 0.004941 0.004200
v 0.004415 -0.014980 0.002474
v 0.004464 -0.019956 0.004062
v 0.004465 -0.014701 -0.004333
v 0.004513 -0.019126 0.000101
v 0.004571 -0.014319 0.001836
v 0.004577 -0.016946 -0.000924
v 0.004578 -0.016035 -0.001693
v 0.004622 -0.015711 0.002939
v 0.004622 -0.014477 -0.004800
v 0.004623 -0.017313 0.003726
v 0.004648 -0.015403 -0.002370
v 0.004654 -0.004705 0.009200
v 0.004662 -0.018125 -0.000251
v 0.004671 -0.019046 0.004110
v 0.004682 -0.014686 -0.003594
v 0.004728 0.004587 0.009200
v 0.004740 -0.018252 0.003988
v 0.004747 -0.019788 0.000208
v 0.004772 -0.015054 -0.002692
v 0.004789 -0.004568 0.004200
v 0.004817 -0.042793 0.009200
v 0.004924 -0.017671 -0.000381
v 0.004946 -0.018382 -0.000115
v 0.004947 -0.016713 0.003427
v 0.004947 -0.016570 -0.000976
v 0.004957 -0.020047 0.004186
v 0.004997 -0.015787 0.002867
v 0.005003 -0.015821 -0.001468
v 0.005110 -0.017211 -0.000503
v 0.005113 -0.019303 0.000129
v 0.005244 -0.017784 0.003797
v 0.005383 -0.018777 0.004046
v 0.005387 -0.017168 -0.000315
v 0.005401 -0.018651 0.000093
v 0.005471 -0.019736 0.000216
v 0.005474 -0.019750 0.004179
v 0.005627 -0.017993 0.003739
v 0.005629 -0.018018 0.000098
v 0.005633 -0.083976 -0.005800
v 0.005646 0.003412 0.009200
v 0.005693 0.003328 0.004200
v 0.005722 -0.083969 -0.010800
v 0.005830 -0.003077 0.009200
v 0.005875 -0.018888 0.000361
v 0.005908 -0.019862 0.000344
v 0.006051 -0.002650 0.004200
v 0.006065 -0.098068 -0.005800
v 0.006065 -0.098068 0.015200
v 0.006083 -0.019615 0.003947
v 0.006123 -0.019729 0.000474
v 0.006195 -0.083912 0.010200
v 0.006228 -0.046178 -0.004800
v 0.006322 -0.083889 0.015200
v 0.006355 0.001781 0.009200
v 0.006365 -0.098118 -0.010800
v 0.006365 -0.098118 0.010200
v 0.006383 0.001689 0.004200
v 0.006438 -0.001466 0.009200
v 0.006588 0.000191 0.009200
v 0.006598 -0.000481 0.004200
v 0.007356 -0.083474 -0.005800
v 0.007535 -0.083376 -0.010800
v 0.007747 0.005789 0.009200
v 0.007806 -0.088697 0.009200
v 0.007856 -0.051078 0.009200
v 0.007870 -0.087061 -0.004800
v 0.007874 -0.089639 -0.004800
v 0.007880 -0.087005 0.009200
v 0.007994 -0.083048 0.010200
v 0.008098 -0.090507 0.009200
v 0.008366 -0.099183 -0.005800
v 0.008366 -0.099183 0.015200
v 0.008416 -0.099280 -0.010800
v 0.008522 -0.082641 0.015200
v 0.008551 -0.099390 0.010200
v 0.008817 -0.092192 0.009200
v 0.008920 -0.055153 -0.004800
v 0.008941 -0.092475 -0.004800
v 0.009264 -0.056995 0.009200
v 0.009310 -0.081712 -0.005800
v 0.009314 -0.088096 0.009200
v 0.009322 -0.088460 0.004200
v 0.009363 -0.081610 -0.010800
v 0.009401 -0.081531 0.010200
v 0.009428 -0.080558 0.009200
v 0.009472 -0.086745 0.004200
v 0.009505 -0.089864 0.009200
v 0.009530 -0.089938 0.004200
v 0.009546 -0.100802 -0.010800
v 0.009611 -0.100962 0.010200
v 0.009611 -0.081036 0.015200
v 0.009621 -0.100986 -0.005800
v 0.009621 -0.100986 0.015200
v 0.009636 -0.079273 -0.004800
v 0.009662 -0.086059 0.009200
v 0.009870 -0.093692 0.009200
v 0.010120 -0.062772 -0.004800
v 0.010176 -0.091511 0.009200
v 0.010212 -0.063523 0.009200
v 0.010320 -0.091784 0.004200
v 0.010384 -0.071792 0.009200
v 0.010398 -0.084582 0.004200
v 0.010438 -0.070489 -0.004800
v 0.010597 -0.094399 -0.004800
v 0.010663 -0.084252 0.009200
v 0.010675 0.001690 -0.004800
v 0.011449 -0.093140 0.009200
v 0.011631 -0.088249 0.012200
v 0.011631 -0.088249 0.015200
v 0.011693 -0.093327 0.004200
v 0.011886 -0.088519 -0.008800
v 0.011888 -0.088121 -0.010800
v 0.012013 -0.095415 0.009200
v 0.012051 -0.082881 0.009200
v 0.012082 -0.082859 0.004200
v 0.012193 -0.086623 -0.008800
v 0.012239 -0.090010 -0.010800
v 0.012291 -0.086422 -0.010800
v 0.012297 -0.090035 -0.008800
v 0.012741 -0.095755 -0.004800
v 0.013342 -0.085160 -0.010800
v 0.013405 -0.085089 -0.008800
v 0.013564 -0.091570 -0.008800
v 0.013675 -0.094486 0.004200
v 0.013711 -0.094499 0.009200
v 0.013739 -0.088433 -0.005800
v 0.013739 -0.088433 0.012200
v 0.013745 -0.088624 -0.004800
v 0.013748 -0.088425 0.004200
v 0.013768 -0.091949 0.012200
v 0.013768 -0.091949 0.015200
v 0.013768 -0.084549 0.012200
v 0.013768 -0.084549 0.015200
v 0.013771 -0.091684 -0.010800
v 0.013793 -0.088802 -0.008800
v 0.013793 -0.088802 0.010200
v 0.013820 -0.087639 -0.008800
v 0.013820 -0.087639 0.010200
v 0.013848 -0.081984 0.009200
v 0.013853 -0.087550 0.004200
v 0.013885 -0.087468 -0.005800
v 0.013885 -0.087468 0.012200
v 0.013934 -0.087324 -0.004800
v 0.013993 -0.089272 0.004200
v 0.013993 -0.081933 0.004200
v 0.014045 -0.089359 -0.005800
v 0.014045 -0.089359 0.012200
v 0.014329 -0.086763 0.004200
v 0.014373 -0.089798 -0.004800
v 0.014413 -0.086660 -0.008800
v 0.014413 -0.086660 0.010200
v 0.014479 -0.089869 0.004200
v 0.014492 -0.086587 -0.005800
v 0.014492 -0.086587 0.012200
v 0.014580 -0.084441 -0.010800
v 0.014609 -0.084453 -0.008800
v 0.014627 -0.090050 -0.008800
v 0.014627 -0.090050 0.010200
v 0.014694 -0.096288 0.009200
v 0.014722 -0.086418 -0.004800
v 0.014776 -0.090114 -0.005800
v 0.014776 -0.090114 0.012200
v 0.015002 -0.086286 0.004200
v 0.015133 -0.090275 0.004200
v 0.015460 -0.092249 -0.010800
v 0.015463 -0.081683 0.004200
v 0.015518 -0.090402 -0.004800
v 0.015518 -0.023572 -0.004800
v 0.015528 -0.023729 0.009200
v 0.015633 -0.096390 -0.004800
v 0.015680 -0.092286 -0.008800
v 0.015706 -0.086058 -0.008800
v 0.015706 -0.086058 0.010200
v 0.015712 -0.081650 0.009200
v 0.015721 -0.086093 -0.004800
v 0.015784 -0.090410 -0.005800
v 0.015784 -0.090410 0.012200
v 0.015910 -0.086039 -0.005800
v 0.015910 -0.086039 0.012200
v 0.015935 -0.086074 0.004200
v 0.015942 -0.094845 0.004200
v 0.015967 -0.090409 0.004200
v 0.016021 -0.084217 -0.008800
v 0.016032 -0.084237 -0.010800
v 0.016044 -0.021332 0.009200
v 0.016062 -0.090423 -0.008800
v 0.016062 -0.090423 0.010200
v 0.016075 -0.021309 -0.004800
v 0.016096 -0.094848 0.009200
v 0.016523 -0.086179 -0.004800
v 0.016738 -0.096321 0.009200
v 0.016837 -0.090221 -0.005800
v 0.016837 -0.090221 0.012200
v 0.016880 -0.090193 0.004200
v 0.016909 -0.090194 -0.004800
v 0.017012 -0.081741 0.004200
v 0.017015 -0.019861 -0.004800
v 0.017017 -0.086384 0.004200
v 0.017115 -0.019756 0.009200
v 0.017122 -0.090045 -0.008800
v 0.017122 -0.090045 0.010200
v 0.017170 -0.086463 -0.008800
v 0.017170 -0.086463 0.010200
v 0.017241 -0.086548 -0.004800
v 0.017278 -0.086562 -0.005800
v 0.017278 -0.086562 0.012200
v 0.017366 -0.091994 -0.008800
v 0.017368 -0.092031 -0.010800
v 0.017468 -0.084534 -0.010800
v 0.017592 -0.081876 0.009200
v 0.017627 -0.089556 -0.005800
v 0.017627 -0.089556 0.012200
v 0.017687 -0.035974 -0.004800
v 0.017740 -0.036177 0.009200
v 0.017767 -0.089384 0.004200
v 0.017769 -0.089355 -0.004800
v 0.017846 -0.089232 -0.008800
v 0.017846 -0.089232 0.010200
v 0.017846 -0.087253 0.004200
v 0.017906 -0.084734 -0.008800
v 0.017925 -0.087419 -0.004800
v 0.017934 -0.087477 -0.005800
v 0.017934 -0.087477 0.012200
v 0.018004 -0.130425 -0.005800
v 0.018004 -0.130425 0.010200
v 0.018004 -0.097006 0.010200
v 0.018010 -0.097019 -0.005800
v 0.018040 -0.091949 0.012200
v 0.018040 -0.091949 0.015200
v 0.018040 -0.084549 0.012200
v 0.018040 -0.084549 0.015200
v 0.018049 -0.088634 -0.005800
v 0.018049 -0.088634 0.012200
v 0.018052 -0.088500 -0.004800
v 0.018064 -0.087784 -0.008800
v 0.018064 -0.087784 0.010200
v 0.018068 -0.088338 0.004200
v 0.018149 -0.096056 -0.004800
v 0.018150 -0.094476 0.004200
v 0.018291 -0.094415 0.009200
v 0.018352 -0.037461 -0.004800
v 0.018633 -0.037875 0.009200
v 0.018665 -0.095892 0.009200
v 0.018758 -0.082308 0.004200
v 0.018789 -0.085447 -0.010800
v 0.018883 -0.090995 -0.008800
v 0.019048 -0.090781 -0.010800
v 0.019325 -0.017609 0.009200
v 0.019554 -0.086443 -0.008800
v 0.019589 -0.082751 0.009200
v 0.019648 -0.038931 -0.004800
v 0.019687 -0.017237 -0.004800
v 0.019708 -0.086890 -0.010800
v 0.019775 -0.095376 -0.004800
v 0.019795 -0.045260 -0.010778
v 0.019805 -0.045223 0.015162
v 0.019813 -0.096396 0.010200
v 0.019893 -0.088941 -0.010800
v 0.019905 -0.088931 -0.008800
v 0.019969 -0.039164 0.009200
v 0.020017 -0.096280 -0.005800
v 0.020022 -0.093396 0.009200
v 0.020065 -0.083141 0.004200
v 0.020176 -0.088249 0.012200
v 0.020176 -0.088249 0.015200
v 0.020177 -0.093282 0.004200
v 0.020246 -0.043671 -0.010243
v 0.020273 -0.043575 0.014604
v 0.020591 -0.042454 -0.009355
v 0.020746 -0.041907 0.013151
v 0.020836 -0.094721 0.009200
v 0.020843 -0.041565 -0.008148
v 0.020970 -0.041120 0.011371
v 0.020977 -0.041093 -0.006834
v 0.021004 -0.140999 -0.010800
v 0.021004 -0.140999 0.015200
v 0.021004 -0.140954 0.020032
v 0.021004 -0.140924 -0.015864
v 0.021004 -0.140418 0.021582
v 0.021004 -0.139891 -0.018028
v 0.021004 -0.139281 0.023020
v 0.021004 -0.138072 -0.019384
v 0.021004 -0.137237 0.024098
v 0.021004 -0.136559 -0.019781
v 0.021004 -0.100897 0.024177
v 0.021004 -0.100107 -0.019672
v 0.021004 -0.099144 0.023662
v 0.021004 -0.098033 -0.018448
v 0.021004 -0.097320 0.022039
v 0.021004 -0.097044 -0.017100
v 0.021004 -0.095580 -0.013295
v 0.021004 -0.095522 0.017577
v 0.021004 -0.094552 -0.012046
v 0.021004 -0.094332 0.016261
v 0.021004 -0.093096 -0.011129
v 0.021004 -0.092492 0.015302
v 0.021004 -0.091584 -0.010802
v 0.021005 -0.040995 -0.005800
v 0.021005 -0.040994 0.010200
v 0.021117 -0.039792 -0.004800
v 0.021121 -0.084222 0.009200
v 0.021245 -0.039840 0.009200
v 0.021325 -0.084477 0.004200
v 0.021340 -0.094293 -0.004800
v 0.021360 -0.091977 0.009200
v 0.021390 -0.091903 0.004200
v 0.021971 -0.014121 -0.004800
v 0.021986 -0.014142 0.009200
v 0.022004 -0.082249 0.003935
v 0.022013 -0.082246 0.000449
v 0.022133 -0.086023 0.009200
v 0.022153 -0.090360 0.004200
v 0.022176 -0.090268 0.009200
v 0.022284 -0.082249 0.004101
v 0.022288 -0.040185 0.009200
v 0.022291 -0.040185 -0.004800
v 0.022313 -0.086612 0.004200
v 0.022327 -0.093204 0.009200
v 0.022417 -0.084249 -0.001800
v 0.022417 -0.084249 0.006200
v 0.022481 -0.088671 0.004200
v 0.022510 -0.088403 0.009200
v 0.022636 -0.082249 0.000207
v 0.022664 -0.092736 -0.004800
v 0.022980 -0.092198 -0.001800
v 0.022994 -0.092175 0.006200
v 0.023205 -0.040842 0.009200
v 0.023291 -0.091584 -0.001800
v 0.023295 -0.091557 0.006200
v 0.023375 -0.091462 0.009200
v 0.023412 -0.082249 0.004178
v 0.023421 -0.041060 -0.004800
v 0.023476 -0.091172 -0.004800
v 0.023506 -0.089687 0.006200
v 0.023508 -0.089701 -0.001800
v 0.023932 -0.082250 0.000378
v 0.023941 -0.042125 0.009200
v 0.023962 -0.089266 0.006200
v 0.023964 -0.089242 -0.001800
v 0.023966 -0.089247 -0.004800
v 0.023967 -0.089224 0.009200
v 0.023979 -0.042411 -0.004800
v 0.023992 -0.082247 0.003950
v 0.024004 -0.140973 0.019851
v 0.024004 -0.140890 -0.016099
v 0.024004 -0.140405 0.021659
v 0.024004 -0.139639 -0.018295
v 0.024004 -0.139046 0.023195
v 0.024004 -0.137412 -0.019668
v 0.024004 -0.137167 0.024112
v 0.024004 -0.100649 -0.019754
v 0.024004 -0.100131 0.024076
v 0.024004 -0.098995 -0.019155
v 0.024004 -0.098334 0.023087
v 0.024004 -0.097355 -0.017700
v 0.024004 -0.097201 0.021822
v 0.024004 -0.095521 0.017579
v 0.024004 -0.095355 -0.012872
v 0.024004 -0.093847 0.015870
v 0.024004 -0.093642 -0.005800
v 0.024004 -0.093642 0.010200
v 0.024004 -0.093430 -0.011267
v 0.024004 -0.091874 0.015226
v 0.024004 -0.091683 -0.010805
v 0.024004 -0.084249 -0.001800
v 0.024004 -0.084249 0.006200
v 0.024004 -0.044984 -0.010772
v 0.024004 -0.044752 0.015103
v 0.024004 -0.042935 0.014170
v 0.024004 -0.042706 -0.009614
v 0.024004 -0.041826 0.013002
v 0.024004 -0.041280 -0.007636
v 0.024004 -0.041153 0.011499
v 0.024004 -0.040993 -0.005800
v 0.024004 -0.040989 0.010200
v 0.024883 -0.140973 0.019851
v 0.024883 -0.140890 -0.016099
v 0.024883 -0.140405 0.021659
v 0.024883 -0.139639 -0.018295
v 0.024883 -0.139046 0.023195
v 0.024883 -0.137412 -0.019668
v 0.024883 -0.137167 0.024112
v 0.024883 -0.100649 -0.019754
v 0.024883 -0.100131 0.024076
v 0.024883 -0.098995 -0.019155
v 0.024883 -0.098334 0.023087
v 0.024883 -0.097355 -0.017700
v 0.024883 -0.097201 0.021822
v 0.024883 -0.095521 0.017579
v 0.024883 -0.095355 -0.012872
v 0.024883 -0.093847 0.015870
v 0.024883 -0.093642 -0.005800
v 0.024883 -0.093642 0.010200
v 0.024883 -0.093430 -0.011267
v 0.024883 -0.091874 0.015226
v 0.024883 -0.091683 -0.010805
v 0.024883 -0.044984 -0.010772
v 0.024883 -0.044752 0.015103
v 0.024883 -0.042935 0.014170
v 0.024883 -0.042706 -0.009614
v 0.024883 -0.041826 0.013002
v 0.024883 -0.041280 -0.007636
v 0.024883 -0.041153 0.011499
v 0.024883 -0.040993 -0.005800
v 0.024883 -0.040989 0.010200
f 836 835 839
f 835 838 839
f 838 845 839
f 839 845 844
f 458 446 476
f 435 426 433
f 451 450 435
f 500 498 478
f 419 416 427
f 433 426 430
f 443 435 433
f 440 435 443
f 440 451 435
f 450 471 462
f 471 481 462
f 481 478 462
f 500 512 498
f 419 430 426
f 419 427 431
f 616 417 277
f 616 277 390
f 430 437 433
f 467 450 451
f 427 416 432
f 430 419 431
f 433 437 443
f 501 500 478
f 467 471 450
f 500 524 512
f 459 451 440
f 427 434 431
f 430 431 441
f 430 441 437
f 481 501 478
f 427 432 434
f 524 536 512
f 431 434 439
f 501 524 500
f 443 459 440
f 496 481 471
f 434 432 438
f 443 437 456
f 431 439 441
f 467 496 471
f 451 480 467
f 459 480 451
f 456 437 452
f 481 520 501
f 520 527 501
f 527 524 501
f 437 441 452
f 496 520 481
f 443 456 459
f 432 446 438
f 480 496 467
f 546 536 524
f 434 438 439
f 480 507 496
f 441 439 453
f 459 484 480
f 439 438 457
f 459 456 468
f 459 468 484
f 542 546 524
f 484 495 480
f 527 542 524
f 439 457 453
f 441 453 452
f 438 446 458
f 456 452 468
f 507 520 496
f 452 453 466
f 452 466 468
f 541 527 520
f 457 438 458
f 511 507 480
f 495 511 480
f 507 534 520
f 541 542 527
f 484 468 497
f 453 457 474
f 453 474 466
f 466 483 468
f 457 458 463
f 511 518 507
f 468 483 497
f 457 482 474
f 518 534 507
f 534 541 520
f 484 515 495
f 515 511 495
f 542 559 546
f 483 505 497
f 466 474 491
f 466 491 483
f 518 537 534
f 457 463 482
f 484 497 515
f 463 479 482
f 547 559 542
f 458 476 479
f 463 458 479
f 474 482 491
f 511 537 518
f 547 541 534
f 541 547 542
f 483 491 505
f 497 505 515
f 515 537 511
f 537 547 534
f 538 535 543
f 554 555 560
f 525 513 509
f 529 525 509
f 538 529 521
f 519 504 513
f 535 539 543
f 548 544 554
f 538 517 535
f 544 545 554
f 517 538 521
f 503 509 513
f 543 544 548
f 506 529 509
f 539 532 543
f 532 544 543
f 554 545 555
f 521 529 506
f 535 532 539
f 517 521 506
f 516 532 535
f 517 516 535
f 532 533 544
f 490 506 509
f 509 503 486
f 490 509 486
f 517 506 492
f 544 540 545
f 485 506 490
f 492 506 489
f 523 533 532
f 533 540 544
f 525 519 513
f 503 513 504
f 489 506 485
f 516 508 532
f 508 523 532
f 517 494 516
f 492 494 517
f 485 490 475
f 540 528 545
f 475 490 486
f 494 493 516
f 475 486 472
f 493 508 516
f 523 540 533
f 540 514 528
f 465 486 504
f 523 514 540
f 469 489 485
f 492 489 469
f 493 487 508
f 487 523 508
f 499 514 523
f 523 487 499
f 461 485 475
f 469 494 492
f 475 472 455
f 469 485 461
f 470 493 494
f 470 494 469
f 486 503 504
f 472 486 465
f 454 475 455
f 461 475 454
f 473 493 470
f 493 473 487
f 454 455 445
f 449 469 461
f 499 488 514
f 488 502 514
f 514 502 528
f 470 469 449
f 473 477 487
f 445 461 454
f 460 473 470
f 477 499 487
f 445 455 444
f 455 472 465
f 455 465 444
f 449 461 445
f 460 470 449
f 460 477 473
f 477 488 499
f 846 853 560
f 853 559 560
f 479 476 519
f 559 547 560
f 560 547 554
f 554 547 548
f 547 537 548
f 548 537 543
f 537 515 543
f 543 515 538
f 515 505 538
f 505 491 538
f 538 491 529
f 491 482 529
f 529 482 525
f 482 479 525
f 525 479 519
f 841 824 536
f 536 824 512
f 824 819 512
f 512 819 498
f 536 546 841
f 546 559 841
f 841 559 853
f 819 820 498
f 820 502 498
f 419 444 416
f 445 444 419
f 426 445 419
f 449 445 426
f 435 449 426
f 460 449 435
f 450 460 435
f 477 460 450
f 462 477 450
f 488 477 462
f 478 488 462
f 502 488 478
f 498 502 478
f 560 555 846
f 555 545 846
f 846 545 833
f 545 528 833
f 528 502 833
f 833 502 820
f 853 876 841
f 876 830 841
f 841 830 824
f 820 829 833
f 829 875 833
f 833 875 846
f 848 839 844
f 844 830 876
f 876 848 844
f 849 845 838
f 875 829 849
f 829 845 849
f 824 830 819
f 830 844 819
f 819 844 820
f 844 845 820
f 845 829 820
f 277 417 405
f 277 405 393
f 670 653 604
f 604 653 576
f 277 393 380
f 417 616 429
f 852 714 700
f 444 562 442
f 604 613 670
f 616 817 519
f 476 616 519
f 429 616 425
f 425 616 412
f 402 416 384
f 685 670 613
f 577 576 638
f 638 576 653
f 412 476 402
f 850 731 852
f 519 685 504
f 398 444 442
f 613 607 685
f 412 616 476
f 826 842 700
f 444 685 587
f 607 587 685
f 205 348 186
f 205 380 348
f 236 380 205
f 277 380 236
f 731 714 852
f 761 810 685
f 444 587 562
f 685 810 700
f 700 810 826
f 384 416 242
f 242 416 398
f 416 444 398
f 402 432 416
f 402 476 446
f 751 761 685
f 402 446 432
f 723 751 685
f 504 685 465
f 678 723 685
f 678 685 519
f 519 698 678
f 465 685 444
f 213 384 242
f 352 384 213
f 196 352 213
f 341 352 196
f 185 341 196
f 186 341 185
f 186 348 341
f 700 842 852
f 519 762 707
f 519 707 698
f 744 731 850
f 850 843 744
f 744 843 726
f 843 834 726
f 834 814 726
f 726 814 705
f 814 764 705
f 764 748 705
f 705 748 677
f 748 680 677
f 680 630 677
f 677 630 659
f 630 614 659
f 614 588 659
f 659 588 638
f 588 577 638
f 776 816 725
f 816 822 725
f 725 822 747
f 822 831 747
f 831 827 747
f 747 827 729
f 827 813 729
f 729 813 708
f 813 773 708
f 773 754 708
f 754 706 708
f 708 706 690
f 706 676 690
f 676 655 690
f 690 655 673
f 655 625 673
f 673 625 658
f 625 612 658
f 658 612 650
f 612 596 650
f 650 596 639
f 596 592 639
f 592 598 639
f 639 598 654
f 598 610 654
f 654 610 662
f 610 620 662
f 662 620 674
f 620 634 674
f 674 634 692
f 634 691 692
f 691 749 692
f 692 749 704
f 749 776 704
f 704 776 725
f 569 567 570
f 569 564 567
f 564 551 567
f 564 550 551
f 550 510 551
f 550 526 510
f 464 510 526
f 436 510 464
f 420 436 464
f 409 436 420
f 397 409 420
f 392 409 397
f 340 392 397
f 351 392 340
f 303 351 340
f 299 303 340
f 241 303 299
f 248 241 299
f 228 241 248
f 222 241 228
f 217 222 228
f 218 222 217
f 215 218 217
f 219 215 217
f 224 215 219
f 235 224 219
f 250 224 235
f 271 250 235
f 271 324 250
f 324 333 250
f 324 389 333
f 389 395 333
f 389 407 395
f 407 411 395
f 407 448 411
f 407 447 448
f 447 522 448
f 522 530 448
f 522 553 530
f 553 556 530
f 553 568 556
f 568 570 556
f 568 569 570
f 278 299 340
f 568 818 569
f 271 243 324
f 195 217 228
f 389 324 399
f 391 340 397
f 228 248 278
f 324 243 399
f 391 278 340
f 847 821 851
f 278 248 299
f 811 821 847
f 407 399 447
f 389 399 407
f 553 818 568
f 573 550 564
f 595 605 615
f 818 522 399
f 447 399 522
f 569 818 564
f 391 420 464
f 573 464 526
f 195 184 217
f 217 184 219
f 184 187 219
f 219 187 235
f 187 206 235
f 206 231 235
f 235 231 271
f 231 243 271
f 225 195 228
f 522 818 553
f 573 564 818
f 578 605 595
f 760 847 720
f 851 821 832
f 225 228 278
f 589 684 575
f 832 823 851
f 851 823 840
f 823 815 840
f 840 815 828
f 828 815 781
f 815 772 781
f 772 750 781
f 781 750 753
f 753 750 701
f 750 699 701
f 701 699 669
f 699 635 669
f 669 635 623
f 635 617 623
f 623 617 606
f 617 608 606
f 606 608 586
f 586 608 580
f 608 597 580
f 580 597 574
f 597 591 574
f 760 811 847
f 595 624 611
f 399 531 679
f 812 770 684
f 615 624 595
f 624 649 611
f 575 684 679
f 684 720 825
f 609 611 649
f 752 724 684
f 684 770 752
f 825 812 684
f 720 837 825
f 574 591 578
f 591 605 578
f 695 399 679
f 589 609 649
f 531 575 679
f 847 837 720
f 724 679 684
f 684 589 649
f 399 695 709
f 709 818 399
f 573 526 550
f 758 818 709
f 391 397 420
f 391 464 573
f 831 832 827
f 832 821 827
f 827 821 813
f 821 811 813
f 813 811 773
f 811 760 773
f 773 760 754
f 760 720 754
f 754 720 706
f 720 684 706
f 706 684 676
f 676 684 655
f 684 649 655
f 655 649 625
f 649 624 625
f 625 624 612
f 624 615 612
f 615 605 612
f 612 605 596
f 605 591 596
f 596 591 592
f 591 597 592
f 592 597 598
f 598 597 610
f 597 608 610
f 608 617 610
f 610 617 620
f 620 617 634
f 617 635 634
f 634 635 691
f 635 699 691
f 691 699 749
f 699 750 749
f 749 750 776
f 750 772 776
f 772 815 776
f 776 815 816
f 816 815 822
f 815 823 822
f 823 832 822
f 822 832 831
f 277 391 390
f 278 391 277
f 679 724 678
f 724 723 678
f 818 762 817
f 758 762 818
f 709 762 758
f 709 707 762
f 231 242 243
f 231 213 242
f 231 206 213
f 213 206 196
f 206 187 196
f 196 187 185
f 187 184 185
f 185 184 186
f 184 195 186
f 186 195 205
f 195 225 205
f 205 225 236
f 225 278 236
f 236 278 277
f 835 836 828
f 834 843 835
f 835 843 838
f 843 850 838
f 838 850 849
f 828 836 840
f 836 839 840
f 839 848 840
f 840 848 851
f 835 828 834
f 834 828 814
f 828 781 814
f 814 781 764
f 781 753 764
f 764 753 748
f 753 701 748
f 748 701 680
f 701 669 680
f 680 669 630
f 669 623 630
f 630 623 614
f 623 606 614
f 614 606 588
f 606 586 588
f 586 580 588
f 588 580 577
f 580 574 577
f 577 574 576
f 574 578 576
f 399 243 398
f 398 243 242
f 398 442 399
f 399 442 531
f 442 562 531
f 531 562 575
f 562 587 575
f 575 587 589
f 589 587 609
f 587 607 609
f 607 613 609
f 609 613 611
f 613 604 611
f 611 604 595
f 604 576 595
f 595 576 578
f 853 847 876
f 847 851 876
f 876 851 848
f 853 846 847
f 847 846 852
f 849 850 875
f 850 852 875
f 875 852 846
f 679 678 695
f 678 698 695
f 698 707 695
f 695 707 709
f 723 724 751
f 724 752 751
f 751 752 761
f 752 770 761
f 761 770 810
f 770 812 810
f 810 812 826
f 812 825 826
f 825 837 826
f 826 837 842
f 837 847 842
f 842 847 852
f 744 747 731
f 747 729 731
f 731 729 714
f 729 708 714
f 714 708 700
f 708 690 700
f 700 690 685
f 690 673 685
f 685 673 670
f 673 658 670
f 670 658 653
f 658 650 653
f 653 650 638
f 650 639 638
f 639 654 638
f 638 654 659
f 654 662 659
f 662 674 659
f 659 674 677
f 674 692 677
f 677 692 705
f 692 704 705
f 704 725 705
f 705 725 726
f 726 725 744
f 725 747 744
f 414 530 556
f 428 414 556
f 428 556 570
f 424 428 570
f 567 424 570
f 551 424 567
f 413 424 551
f 510 413 551
f 404 413 510
f 436 404 510
f 409 404 436
f 396 404 409
f 392 396 409
f 392 388 396
f 392 351 388
f 351 303 388
f 303 366 388
f 303 241 366
f 241 347 366
f 241 222 347
f 222 218 347
f 218 344 347
f 218 215 344
f 215 224 344
f 344 224 361
f 224 250 361
f 361 250 385
f 250 333 385
f 385 333 394
f 333 395 394
f 394 395 411
f 406 394 411
f 406 411 448
f 406 448 530
f 414 406 530
f 344 341 347
f 341 348 347
f 347 348 366
f 348 380 366
f 366 380 388
f 380 393 388
f 388 393 396
f 396 393 404
f 393 405 404
f 404 405 413
f 405 417 413
f 424 413 417
f 424 417 429
f 428 424 429
f 428 429 425
f 414 428 425
f 414 425 412
f 406 414 412
f 406 412 402
f 394 406 402
f 394 402 384
f 385 394 384
f 361 385 384
f 384 352 361
f 361 352 344
f 352 341 344
f 762 519 817
f 818 817 616
f 616 390 391
f 391 573 818
f 616 391 818
f 689 664 642
f 637 657 618
f 640 687 738
f 664 652 642
f 642 652 618
f 640 657 672
f 687 703 738
f 703 722 738
f 618 657 640
f 640 672 687
f 740 716 689
f 740 689 642
f 618 652 637
f 740 733 716
f 738 722 774
f 774 722 743
f 740 774 733
f 743 733 774
f 640 738 641
f 738 739 641
f 738 774 739
f 774 775 739
f 774 740 775
f 740 741 775
f 740 642 741
f 642 643 741
f 642 618 643
f 618 619 643
f 809 885 783
f 885 883 783
f 783 883 780
f 883 881 780
f 881 879 780
f 780 879 778
f 879 878 778
f 778 878 766
f 765 877 777
f 877 880 777
f 777 880 779
f 782 779 882
f 882 779 880
f 784 782 882
f 808 784 884
f 884 784 882
f 549 552 571
f 552 572 571
f 571 572 590
f 572 593 590
f 262 558 290
f 558 566 290
f 256 253 266
f 253 276 266
f 266 276 297
f 276 317 297
f 297 317 325
f 317 350 325
f 325 350 356
f 350 371 356
f 356 371 376
f 371 370 376
f 376 370 365
f 370 336 365
f 365 336 338
f 338 336 315
f 336 304 315
f 315 304 282
f 304 283 282
f 283 253 282
f 282 253 256
f 261 557 289
f 557 565 289
f 251 552 269
f 552 549 269
f 626 621 647
f 647 621 645
f 621 629 645
f 645 629 667
f 629 633 667
f 633 681 667
f 667 681 696
f 681 717 696
f 696 717 710
f 717 756 710
f 710 756 727
f 756 769 727
f 727 769 745
f 769 759 745
f 745 759 712
f 759 730 712
f 712 730 682
f 730 693 682
f 693 666 682
f 682 666 660
f 666 632 660
f 632 626 660
f 660 626 647
f 252 561 270
f 561 563 270
f 618 640 619
f 640 641 619
f 289 229 261
f 261 229 199
f 229 188 199
f 188 166 199
f 199 166 171
f 171 166 154
f 166 156 154
f 156 160 154
f 154 160 163
f 160 173 163
f 163 173 177
f 173 202 177
f 177 202 209
f 202 251 209
f 209 251 269
f 645 636 647
f 636 651 647
f 647 651 660
f 651 663 660
f 660 663 682
f 663 688 682
f 682 688 712
f 688 715 712
f 712 715 745
f 715 732 745
f 732 742 745
f 745 742 727
f 742 721 727
f 727 721 710
f 721 702 710
f 710 702 696
f 702 686 696
f 696 686 667
f 686 671 667
f 671 656 667
f 667 656 645
f 656 636 645
f 686 702 737
f 338 315 636
f 808 688 590
f 737 656 671
f 884 688 808
f 688 663 590
f 163 315 282
f 884 715 688
f 636 365 338
f 671 686 737
f 737 702 771
f 771 702 721
f 721 742 870
f 581 325 356
f 282 256 163
f 571 590 663
f 549 651 269
f 177 209 636
f 177 636 163
f 261 325 557
f 771 721 870
f 884 732 715
f 663 651 571
f 315 163 636
f 356 656 737
f 870 732 884
f 571 651 549
f 636 209 651
f 209 269 651
f 376 365 636
f 163 256 154
f 256 266 154
f 154 266 171
f 171 266 199
f 266 297 199
f 199 297 261
f 297 325 261
f 356 376 656
f 325 581 557
f 732 870 742
f 581 356 737
f 734 602 737
f 376 636 656
f 602 581 737
f 793 795 860
f 795 862 860
f 867 866 802
f 866 799 802
f 371 350 675
f 675 350 317
f 251 304 336
f 675 317 289
f 765 694 877
f 807 757 785
f 572 552 336
f 675 370 371
f 251 336 552
f 289 565 675
f 675 644 336
f 593 665 765
f 665 694 765
f 675 336 370
f 768 757 807
f 565 583 675
f 718 675 785
f 785 675 599
f 694 719 877
f 757 718 785
f 583 599 675
f 593 572 628
f 631 665 593
f 877 755 874
f 755 763 874
f 874 763 768
f 627 622 336
f 631 593 628
f 719 755 877
f 874 768 807
f 289 317 229
f 317 276 229
f 229 276 188
f 188 276 166
f 276 253 166
f 166 253 156
f 156 253 160
f 160 253 173
f 253 283 173
f 173 283 202
f 283 304 202
f 202 304 251
f 336 644 627
f 622 628 336
f 336 628 572
f 859 861 794
f 861 796 794
f 768 763 769
f 769 763 759
f 763 755 759
f 759 755 730
f 755 719 730
f 730 719 693
f 719 694 693
f 694 665 693
f 693 665 666
f 666 665 632
f 665 631 632
f 631 628 632
f 632 628 626
f 628 622 626
f 626 622 621
f 622 627 621
f 621 627 629
f 629 627 633
f 627 644 633
f 633 644 681
f 644 675 681
f 675 718 681
f 681 718 717
f 717 718 756
f 718 757 756
f 756 757 769
f 757 768 769
f 779 782 765
f 765 777 779
f 765 782 784
f 765 784 808
f 590 593 808
f 593 765 808
f 775 741 878
f 741 643 878
f 878 643 766
f 878 873 775
f 873 806 775
f 775 806 739
f 806 786 739
f 739 786 603
f 641 739 582
f 563 584 619
f 164 270 619
f 270 563 619
f 643 601 766
f 619 360 327
f 739 603 582
f 643 619 584
f 619 327 164
f 164 178 270
f 262 330 558
f 302 279 164
f 327 302 164
f 584 601 643
f 558 330 357
f 178 210 270
f 357 377 582
f 582 377 641
f 641 377 619
f 377 360 619
f 279 255 164
f 164 255 155
f 255 263 155
f 155 263 172
f 263 293 172
f 172 293 200
f 200 293 262
f 293 330 262
f 582 558 357
f 806 804 786
f 804 802 786
f 799 797 802
f 786 802 787
f 802 795 787
f 787 795 793
f 802 797 795
f 789 787 793
f 791 789 793
f 600 603 735
f 603 786 735
f 735 786 734
f 786 785 734
f 734 785 602
f 785 599 602
f 601 594 766
f 594 809 766
f 780 778 766
f 766 783 780
f 809 783 766
f 736 343 322
f 728 711 871
f 871 711 767
f 374 343 736
f 290 566 322
f 736 322 566
f 871 746 728
f 585 600 736
f 809 683 885
f 711 697 767
f 767 697 736
f 736 600 735
f 661 683 594
f 683 713 885
f 305 332 252
f 252 332 561
f 736 697 374
f 594 683 809
f 566 585 736
f 697 668 374
f 579 332 362
f 885 713 746
f 885 746 871
f 579 561 332
f 668 646 374
f 648 362 374
f 594 579 661
f 648 661 362
f 646 648 374
f 322 288 290
f 290 288 230
f 230 288 189
f 189 288 167
f 288 254 167
f 167 254 157
f 157 254 161
f 254 273 161
f 161 273 174
f 174 273 203
f 273 305 203
f 203 305 252
f 579 362 661
f 786 787 854
f 786 854 785
f 854 855 785
f 785 855 788
f 270 210 252
f 252 210 203
f 210 178 203
f 203 178 174
f 178 164 174
f 174 164 161
f 164 155 161
f 161 155 157
f 157 155 167
f 155 172 167
f 172 200 167
f 167 200 189
f 189 200 230
f 200 262 230
f 230 262 290
f 254 255 273
f 255 279 273
f 279 302 273
f 273 302 305
f 302 327 305
f 305 327 332
f 327 360 332
f 332 360 362
f 360 377 362
f 362 377 374
f 377 357 374
f 374 357 343
f 357 330 343
f 343 330 322
f 330 293 322
f 322 293 288
f 288 293 254
f 293 263 254
f 263 255 254
f 771 870 767
f 870 871 767
f 646 637 648
f 637 652 648
f 648 652 661
f 652 664 661
f 661 664 683
f 664 689 683
f 683 689 713
f 689 716 713
f 713 716 746
f 716 733 746
f 733 743 746
f 746 743 728
f 743 722 728
f 728 722 711
f 722 703 711
f 711 703 697
f 703 687 697
f 697 687 668
f 687 672 668
f 672 657 668
f 668 657 646
f 657 637 646
f 736 737 767
f 737 771 767
f 734 737 735
f 737 736 735
f 865 868 800
f 868 801 800
f 800 801 796
f 796 801 794
f 785 803 805
f 785 805 807
f 801 803 785
f 801 785 794
f 785 788 794
f 800 796 798
f 790 792 794
f 794 788 790
f 558 582 566
f 566 582 585
f 585 582 600
f 582 603 600
f 602 599 581
f 599 583 581
f 583 565 581
f 581 565 557
f 866 864 799
f 799 864 797
f 864 862 797
f 797 862 795
f 867 802 869
f 802 804 869
f 804 806 869
f 869 806 873
f 801 868 803
f 868 872 803
f 803 872 805
f 872 874 805
f 805 874 807
f 861 863 796
f 796 863 798
f 863 865 798
f 798 865 800
f 788 855 790
f 855 857 790
f 790 857 792
f 857 859 792
f 792 859 794
f 854 787 856
f 787 789 856
f 789 791 856
f 856 791 858
f 791 793 858
f 858 793 860
f 601 584 594
f 594 584 579
f 584 563 579
f 579 563 561
f 870 884 914
f 870 914 902
f 871 870 902
f 871 902 903
f 884 882 912
f 884 912 914
f 854 856 888
f 854 888 886
f 860 862 894
f 860 894 892
f 861 859 891
f 861 891 893
f 857 855 887
f 857 887 889
f 866 867 899
f 866 899 898
f 872 868 900
f 872 900 904
f 880 877 907
f 880 907 910
f 874 872 904
f 874 904 906
f 867 869 901
f 867 901 899
f 855 854 886
f 855 886 887
f 881 883 913
f 881 913 911
f 877 874 906
f 877 906 907
f 885 871 903
f 885 903 915
f 878 879 909
f 878 909 908
f 863 861 893
f 863 893 895
f 879 881 911
f 879 911 909
f 883 885 915
f 883 915 913
f 865 863 895
f 865 895 897
f 858 860 892
f 858 892 890
f 864 866 898
f 864 898 896
f 862 864 896
f 862 896 894
f 882 880 910
f 882 910 912
f 868 865 897
f 868 897 900
f 869 873 905
f 869 905 901
f 873 878 908
f 873 908 905
f 894 903 892
f 903 902 892
f 903 899 901
f 894 899 903
f 887 886 892
f 887 892 891
f 892 902 891
f 891 902 893
f 902 900 893
f 901 905 903
f 906 902 907
f 904 900 902
f 886 888 892
f 892 888 890
f 903 905 915
f 905 908 915
f 906 904 902
f 898 894 896
f 913 915 908
f 891 889 887
f 902 914 907
f 907 914 912
f 899 894 898
f 900 897 893
f 897 895 893
f 911 913 908
f 908 909 911
f 910 907 912
f 859 857 889
f 859 889 891
f 856 858 890
f 856 890 888
f 418 415 422
f 37 43 46
f 7 8 1
f 423 422 421
f 258 257 260
f 57 61 67
f 335 331 316
f 10 11 15
f 260 264 272
f 148 131 151
f 58 53 69
f 74 69 84
f 138 134 128
f 128 65 77
f 128 77 88
f 152 138 128
f 183 169 152
f 226 204 183
f 268 245 226
f 310 298 268
f 313 320 310
f 102 93 118
f 103 102 118
f 118 313 310
f 310 268 226
f 226 183 152
f 152 128 88
f 97 103 118
f 152 88 97
f 310 226 152
f 97 118 310
f 97 310 152
f 90 93 100
f 287 292 329
f 272 274 291
f 70 65 62
f 53 58 26
f 114 115 118
f 15 11 13
f 112 113 109
f 79 77 70
f 46 51 57
f 358 298 310
f 354 349 335
f 22 21 24
f 381 321 379
f 85 95 98
f 35 31 28
f 38 34 41
f 149 137 133
f 110 111 114
f 86 78 75
f 29 30 34
f 378 375 368
f 373 321 381
f 33 36 30
f 14 16 12
f 301 300 280
f 19 16 14
f 19 14 20
f 410 408 415
f 300 301 316
f 287 249 292
f 60 54 42
f 15 13 17
f 42 27 25
f 25 23 20
f 72 80 66
f 234 286 244
f 249 287 239
f 364 354 368
f 67 73 81
f 353 355 345
f 379 308 359
f 88 87 99
f 207 208 221
f 211 170 197
f 152 162 138
f 81 83 85
f 96 89 86
f 232 239 221
f 18 21 22
f 36 40 48
f 22 24 26
f 105 101 96
f 226 281 238
f 52 47 44
f 240 193 216
f 82 90 80
f 162 152 179
f 25 27 23
f 100 102 106
f 323 237 267
f 98 104 105
f 372 320 313
f 48 50 56
f 49 45 41
f 28 32 37
f 280 275 258
f 110 107 111
f 367 369 378
f 204 214 183
f 56 63 66
f 240 227 193
f 291 295 309
f 328 339 345
f 244 318 285
f 285 342 308
f 75 68 64
f 221 208 232
f 369 367 355
f 226 238 204
f 106 103 99
f 149 133 129
f 346 267 294
f 44 39 35
f 220 247 234
f 245 319 281
f 64 59 52
f 281 226 245
f 410 415 418
f 334 386 387
f 118 115 120
f 323 346 284
f 165 146 137
f 62 55 49
f 346 363 284
f 216 265 240
f 329 334 287
f 296 237 323
f 3 4 5
f 140 128 147
f 211 175 227
f 159 132 151
f 26 24 53
f 11 10 2
f 11 2 1
f 142 143 122
f 310 320 382
f 108 112 109
f 67 61 73
f 291 274 295
f 65 128 7
f 7 2 10
f 10 15 18
f 18 22 26
f 26 58 74
f 74 94 110
f 110 114 118
f 118 93 82
f 118 82 72
f 74 110 118
f 18 26 74
f 7 10 18
f 55 65 7
f 45 55 7
f 7 18 74
f 74 118 72
f 74 72 63
f 38 45 7
f 29 38 7
f 74 63 50
f 74 50 40
f 33 29 7
f 7 74 40
f 7 40 33
f 168 141 150
f 168 150 180
f 363 383 306
f 35 39 31
f 42 54 27
f 410 403 408
f 165 181 158
f 165 158 146
f 116 119 117
f 119 121 117
f 92 76 68
f 92 68 78
f 112 108 92
f 119 116 112
f 321 312 119
f 285 308 321
f 234 244 285
f 191 220 234
f 158 176 191
f 137 146 158
f 129 133 137
f 73 61 129
f 83 73 129
f 129 137 158
f 158 191 234
f 234 285 321
f 321 119 112
f 112 92 78
f 112 78 89
f 234 321 112
f 129 158 234
f 95 83 129
f 104 95 129
f 129 234 112
f 112 89 101
f 104 129 112
f 101 104 112
f 59 68 60
f 60 42 25
f 25 20 14
f 14 9 3
f 3 6 129
f 129 61 51
f 129 51 43
f 14 3 129
f 60 25 14
f 47 59 60
f 39 47 60
f 14 129 43
f 14 43 32
f 39 60 14
f 14 32 31
f 14 31 39
f 148 130 124
f 148 124 144
f 148 132 130
f 68 76 60
f 363 346 294
f 403 401 408
f 149 165 137
f 28 31 32
f 182 170 211
f 60 71 54
f 329 386 334
f 145 168 180
f 110 94 107
f 64 68 59
f 124 123 142
f 135 159 151
f 135 151 131
f 140 192 194
f 8 7 128
f 127 8 128
f 127 128 140
f 143 127 140
f 129 6 5
f 129 5 125
f 139 129 125
f 143 140 194
f 139 125 143
f 194 139 143
f 131 148 126
f 296 323 246
f 98 95 104
f 168 145 136
f 116 117 113
f 56 50 63
f 143 123 127
f 6 3 5
f 244 286 318
f 94 74 84
f 260 257 264
f 239 232 249
f 400 408 401
f 82 93 90
f 80 72 82
f 233 212 265
f 197 180 150
f 197 150 175
f 85 83 95
f 328 326 339
f 198 182 227
f 60 76 71
f 227 175 193
f 386 400 401
f 386 401 387
f 233 296 246
f 46 43 51
f 73 83 81
f 3 9 4
f 275 208 192
f 275 192 259
f 17 21 18
f 190 169 183
f 190 183 214
f 99 103 97
f 52 59 47
f 37 32 43
f 91 92 108
f 91 108 109
f 98 105 121
f 121 307 294
f 121 294 267
f 85 98 121
f 85 121 267
f 85 267 237
f 81 85 237
f 81 237 216
f 67 81 216
f 67 216 193
f 57 67 193
f 57 193 175
f 46 57 175
f 46 175 150
f 37 46 150
f 37 150 141
f 37 141 135
f 37 135 131
f 37 131 126
f 122 125 5
f 37 126 122
f 28 37 122
f 122 5 4
f 4 12 16
f 16 19 23
f 23 27 54
f 54 71 91
f 91 109 75
f 91 75 64
f 23 54 91
f 4 16 23
f 28 122 4
f 35 28 4
f 4 23 91
f 91 64 52
f 44 35 4
f 91 52 44
f 4 91 44
f 223 247 220
f 223 220 191
f 86 75 109
f 109 113 117
f 117 121 105
f 96 86 109
f 117 105 96
f 109 117 96
f 208 207 194
f 208 194 192
f 272 264 274
f 191 176 201
f 191 201 223
f 147 128 134
f 415 408 400
f 400 386 329
f 329 292 249
f 249 232 208
f 208 275 300
f 208 300 314
f 329 249 208
f 415 400 329
f 421 422 415
f 382 372 421
f 358 382 421
f 421 415 329
f 329 208 314
f 329 314 331
f 337 358 421
f 319 337 421
f 421 329 331
f 421 331 349
f 281 319 421
f 238 281 421
f 421 349 364
f 421 364 375
f 214 238 421
f 190 214 421
f 421 375 369
f 421 369 353
f 179 190 421
f 179 421 353
f 179 353 339
f 162 179 339
f 162 339 326
f 192 140 147
f 162 326 311
f 192 147 162
f 257 259 192
f 264 257 192
f 162 311 295
f 274 264 192
f 162 295 274
f 274 192 162
f 49 55 45
f 112 116 113
f 326 328 309
f 326 309 311
f 34 8 127
f 127 123 70
f 127 70 62
f 41 34 127
f 127 62 49
f 127 49 41
f 132 148 151
f 86 89 78
f 139 149 129
f 74 58 69
f 316 314 300
f 9 12 4
f 335 349 331
f 75 78 68
f 36 33 40
f 2 7 1
f 418 423 373
f 418 373 381
f 403 410 418
f 387 401 403
f 287 334 387
f 221 239 287
f 194 207 221
f 149 139 194
f 291 181 165
f 165 149 194
f 194 221 287
f 287 387 403
f 403 418 381
f 403 381 379
f 194 287 403
f 291 165 194
f 272 291 194
f 403 379 359
f 403 359 342
f 260 272 194
f 258 260 194
f 403 342 318
f 286 247 309
f 403 318 286
f 280 258 194
f 301 280 194
f 286 309 328
f 286 328 345
f 301 194 403
f 316 301 403
f 286 345 355
f 286 355 367
f 335 316 403
f 354 335 403
f 403 286 367
f 403 367 378
f 368 354 403
f 378 368 403
f 91 71 76
f 91 76 92
f 382 358 310
f 372 382 320
f 284 363 306
f 138 162 147
f 138 147 134
f 159 136 132
f 9 14 12
f 364 349 354
f 70 77 65
f 358 337 298
f 66 63 72
f 122 143 125
f 100 93 102
f 423 418 422
f 346 323 267
f 79 87 88
f 79 88 77
f 102 103 106
f 94 84 107
f 268 298 337
f 268 337 319
f 201 181 291
f 291 309 247
f 223 201 291
f 223 291 247
f 23 19 20
f 44 47 39
f 308 342 359
f 114 111 115
f 211 227 182
f 280 300 275
f 135 141 168
f 135 168 159
f 204 238 214
f 355 353 369
f 48 40 50
f 345 339 353
f 62 65 55
f 373 312 321
f 96 101 89
f 285 318 342
f 18 15 17
f 181 201 176
f 181 176 158
f 34 38 29
f 179 152 169
f 179 169 190
f 41 45 38
f 153 180 197
f 153 197 170
f 234 247 286
f 309 295 311
f 245 268 319
f 175 211 197
f 29 33 30
f 363 294 307
f 363 307 383
f 373 423 421
f 121 119 312
f 307 121 312
f 307 312 373
f 383 307 373
f 313 118 120
f 313 120 306
f 372 313 306
f 383 373 421
f 372 306 383
f 421 372 383
f 180 153 145
f 316 331 314
f 124 142 144
f 227 240 198
f 123 143 142
f 198 240 212
f 258 275 259
f 375 364 368
f 258 259 257
f 296 265 216
f 296 216 237
f 379 321 308
f 159 168 136
f 105 104 101
f 378 369 375
f 142 122 126
f 142 126 144
f 284 306 120
f 120 115 111
f 111 107 84
f 84 69 53
f 53 24 21
f 21 17 13
f 13 11 1
f 1 8 34
f 1 34 30
f 21 13 1
f 84 53 21
f 120 111 84
f 246 284 120
f 233 246 120
f 120 84 21
f 21 1 30
f 21 30 36
f 212 233 120
f 198 212 120
f 21 36 48
f 21 48 56
f 182 198 120
f 170 182 120
f 21 56 66
f 21 66 80
f 153 170 120
f 145 153 120
f 120 21 80
f 120 80 90
f 136 145 120
f 132 136 120
f 120 90 100
f 120 100 106
f 130 132 120
f 70 123 124
f 124 130 120
f 120 106 99
f 120 99 87
f 79 70 124
f 124 120 87
f 124 87 79
f 284 246 323
f 97 88 99
f 57 51 61
f 265 296 233
f 240 265 212
f 148 144 126
